<mxfile host="app.diagrams.net" modified="2024-04-01T00:48:30.305Z" agent="Mozilla/5.0 (Windows NT 10.0; Win64; x64) AppleWebKit/537.36 (KHTML, like Gecko) Chrome/123.0.0.0 Safari/537.36" etag="muppYqATVBzwb1nh-Ky4" version="24.2.1" type="github" pages="6">
  <diagram name="0. Global" id="c7488fd3-1785-93aa-aadb-54a6760d102a">
    <mxGraphModel dx="1061" dy="580" grid="1" gridSize="10" guides="1" tooltips="1" connect="1" arrows="1" fold="1" page="1" pageScale="1" pageWidth="1100" pageHeight="850" background="none" math="0" shadow="0">
      <root>
        <mxCell id="0" />
        <mxCell id="1" parent="0" />
        <mxCell id="2b4e8129b02d487f-1" value="Global" style="swimlane;html=1;childLayout=stackLayout;horizontal=1;startSize=20;horizontalStack=0;rounded=0;shadow=0;labelBackgroundColor=none;strokeWidth=1;fontFamily=Verdana;fontSize=8;align=center;" parent="1" vertex="1">
          <mxGeometry x="10" y="10" width="1080" height="830" as="geometry" />
        </mxCell>
        <mxCell id="2b4e8129b02d487f-2" value="&lt;div&gt;Customer&lt;/div&gt;" style="swimlane;html=1;startSize=20;horizontal=0;" parent="2b4e8129b02d487f-1" vertex="1">
          <mxGeometry y="20" width="1080" height="90" as="geometry" />
        </mxCell>
        <mxCell id="GMltM3ymVXndYzE7rLGL-1" value="Ordering" style="rounded=1;whiteSpace=wrap;html=1;shadow=0;labelBackgroundColor=none;strokeWidth=1;fontFamily=Verdana;fontSize=8;align=center;" parent="2b4e8129b02d487f-2" vertex="1">
          <mxGeometry x="74" y="27.5" width="70" height="37" as="geometry" />
        </mxCell>
        <mxCell id="2b4e8129b02d487f-5" value="" style="ellipse;whiteSpace=wrap;html=1;rounded=0;shadow=0;labelBackgroundColor=none;strokeWidth=1;fontFamily=Verdana;fontSize=8;align=center;" parent="2b4e8129b02d487f-2" vertex="1">
          <mxGeometry x="30" y="31" width="30" height="30" as="geometry" />
        </mxCell>
        <mxCell id="GMltM3ymVXndYzE7rLGL-4" style="edgeStyle=orthogonalEdgeStyle;rounded=0;html=1;labelBackgroundColor=none;startArrow=none;startFill=0;startSize=5;endArrow=classicThin;endFill=1;endSize=5;jettySize=auto;orthogonalLoop=1;strokeWidth=1;fontFamily=Verdana;fontSize=8" parent="2b4e8129b02d487f-2" source="2b4e8129b02d487f-5" target="GMltM3ymVXndYzE7rLGL-1" edge="1">
          <mxGeometry relative="1" as="geometry">
            <mxPoint x="56.985825852227094" y="45.80886792452831" as="sourcePoint" />
            <mxPoint x="91" y="45.80886792452831" as="targetPoint" />
            <Array as="points">
              <mxPoint x="80" y="46" />
              <mxPoint x="80" y="46" />
            </Array>
          </mxGeometry>
        </mxCell>
        <mxCell id="H8-8fgQMa_ZMKyO4CBSe-32" value="Parts Received" style="rounded=1;whiteSpace=wrap;html=1;shadow=0;labelBackgroundColor=none;strokeWidth=1;fontFamily=Verdana;fontSize=8;align=center;" parent="2b4e8129b02d487f-2" vertex="1">
          <mxGeometry x="840" y="31" width="70" height="37" as="geometry" />
        </mxCell>
        <mxCell id="2b4e8129b02d487f-3" value="Affiliate Cust." style="swimlane;html=1;startSize=20;horizontal=0;" parent="2b4e8129b02d487f-1" vertex="1">
          <mxGeometry y="110" width="1080" height="110" as="geometry" />
        </mxCell>
        <mxCell id="2b4e8129b02d487f-6" value="Ordering" style="rounded=1;whiteSpace=wrap;html=1;shadow=0;labelBackgroundColor=none;strokeWidth=1;fontFamily=Verdana;fontSize=8;align=center;fillColor=#e1d5e7;strokeColor=#9673a6;" parent="2b4e8129b02d487f-3" vertex="1">
          <mxGeometry x="65" y="26.99999999999997" width="70" height="37" as="geometry" />
        </mxCell>
        <mxCell id="OChGtl6JTXPUs5rAQgMA-75" value="Parts Received" style="rounded=1;whiteSpace=wrap;html=1;shadow=0;labelBackgroundColor=none;strokeWidth=1;fontFamily=Verdana;fontSize=8;align=center;" parent="2b4e8129b02d487f-3" vertex="1">
          <mxGeometry x="791" y="30" width="70" height="37" as="geometry" />
        </mxCell>
        <mxCell id="2b4e8129b02d487f-4" value="PASI" style="swimlane;html=1;startSize=20;horizontal=0;" parent="2b4e8129b02d487f-1" vertex="1">
          <mxGeometry y="220" width="1080" height="310" as="geometry" />
        </mxCell>
        <mxCell id="OChGtl6JTXPUs5rAQgMA-20" value="Collect Order" style="rounded=1;whiteSpace=wrap;html=1;shadow=0;labelBackgroundColor=none;strokeWidth=1;fontFamily=Verdana;fontSize=8;align=center;fillColor=#e1d5e7;strokeColor=#9673a6;" parent="2b4e8129b02d487f-4" vertex="1">
          <mxGeometry x="110" y="45" width="70" height="37" as="geometry" />
        </mxCell>
        <mxCell id="OChGtl6JTXPUs5rAQgMA-28" value="Valid" style="strokeWidth=1;html=1;shape=mxgraph.flowchart.decision;whiteSpace=wrap;rounded=1;shadow=0;labelBackgroundColor=none;fontFamily=Verdana;fontSize=8;align=center;" parent="2b4e8129b02d487f-4" vertex="1">
          <mxGeometry x="201" y="48.499999999999886" width="30" height="30" as="geometry" />
        </mxCell>
        <mxCell id="OChGtl6JTXPUs5rAQgMA-30" style="edgeStyle=orthogonalEdgeStyle;rounded=0;html=1;labelBackgroundColor=none;startArrow=none;startFill=0;startSize=5;endArrow=classicThin;endFill=1;endSize=5;jettySize=auto;orthogonalLoop=1;strokeWidth=1;fontFamily=Verdana;fontSize=8;" parent="2b4e8129b02d487f-4" source="OChGtl6JTXPUs5rAQgMA-20" target="OChGtl6JTXPUs5rAQgMA-28" edge="1">
          <mxGeometry relative="1" as="geometry">
            <mxPoint x="329" y="-13" as="sourcePoint" />
            <mxPoint x="342" y="50" as="targetPoint" />
            <Array as="points" />
          </mxGeometry>
        </mxCell>
        <mxCell id="OChGtl6JTXPUs5rAQgMA-31" value="Generate SO for Affiliate" style="rounded=1;whiteSpace=wrap;html=1;shadow=0;labelBackgroundColor=none;strokeWidth=1;fontFamily=Verdana;fontSize=8;align=center;fillColor=#e1d5e7;strokeColor=#9673a6;" parent="2b4e8129b02d487f-4" vertex="1">
          <mxGeometry x="300" y="11.5" width="70" height="37" as="geometry" />
        </mxCell>
        <mxCell id="OChGtl6JTXPUs5rAQgMA-34" style="edgeStyle=orthogonalEdgeStyle;rounded=0;html=1;labelBackgroundColor=none;startArrow=none;startFill=0;startSize=5;endArrow=classicThin;endFill=1;endSize=5;jettySize=auto;orthogonalLoop=1;strokeWidth=1;fontFamily=Verdana;fontSize=8;" parent="2b4e8129b02d487f-4" source="OChGtl6JTXPUs5rAQgMA-28" target="OChGtl6JTXPUs5rAQgMA-31" edge="1">
          <mxGeometry relative="1" as="geometry">
            <mxPoint x="322" y="79" as="sourcePoint" />
            <mxPoint x="362" y="79" as="targetPoint" />
            <Array as="points">
              <mxPoint x="280" y="63" />
              <mxPoint x="280" y="30" />
            </Array>
          </mxGeometry>
        </mxCell>
        <mxCell id="OChGtl6JTXPUs5rAQgMA-35" value="Generate PO to Vendor (O.s/Dom.)" style="rounded=1;whiteSpace=wrap;html=1;shadow=0;labelBackgroundColor=none;strokeWidth=1;fontFamily=Verdana;fontSize=8;align=center;fillColor=#e1d5e7;strokeColor=#9673a6;" parent="2b4e8129b02d487f-4" vertex="1">
          <mxGeometry x="300" y="82" width="70" height="37" as="geometry" />
        </mxCell>
        <mxCell id="OChGtl6JTXPUs5rAQgMA-36" style="edgeStyle=orthogonalEdgeStyle;rounded=0;html=1;labelBackgroundColor=none;startArrow=none;startFill=0;startSize=5;endArrow=classicThin;endFill=1;endSize=5;jettySize=auto;orthogonalLoop=1;strokeWidth=1;fontFamily=Verdana;fontSize=8;exitX=0.961;exitY=0.52;exitDx=0;exitDy=0;exitPerimeter=0;" parent="2b4e8129b02d487f-4" source="OChGtl6JTXPUs5rAQgMA-28" target="OChGtl6JTXPUs5rAQgMA-35" edge="1">
          <mxGeometry relative="1" as="geometry">
            <mxPoint x="392" y="80" as="sourcePoint" />
            <mxPoint x="432" y="118.5" as="targetPoint" />
            <Array as="points">
              <mxPoint x="280" y="64" />
              <mxPoint x="280" y="102" />
            </Array>
          </mxGeometry>
        </mxCell>
        <mxCell id="bfZTL-geVbeJQ1GXdaqd-4" value="Yes" style="edgeLabel;html=1;align=center;verticalAlign=middle;resizable=0;points=[];fontSize=12;" parent="OChGtl6JTXPUs5rAQgMA-36" vertex="1" connectable="0">
          <mxGeometry x="-0.7527" relative="1" as="geometry">
            <mxPoint x="11" y="-1" as="offset" />
          </mxGeometry>
        </mxCell>
        <mxCell id="OChGtl6JTXPUs5rAQgMA-66" value="Send PO to Vendor" style="rounded=1;whiteSpace=wrap;html=1;shadow=0;labelBackgroundColor=none;strokeWidth=1;fontFamily=Verdana;fontSize=8;align=center;fillColor=#e1d5e7;strokeColor=#9673a6;" parent="2b4e8129b02d487f-4" vertex="1">
          <mxGeometry x="398" y="82" width="70" height="37" as="geometry" />
        </mxCell>
        <mxCell id="OChGtl6JTXPUs5rAQgMA-67" style="edgeStyle=orthogonalEdgeStyle;rounded=0;html=1;labelBackgroundColor=none;startArrow=none;startFill=0;startSize=5;endArrow=classicThin;endFill=1;endSize=5;jettySize=auto;orthogonalLoop=1;strokeWidth=1;fontFamily=Verdana;fontSize=8;" parent="2b4e8129b02d487f-4" source="OChGtl6JTXPUs5rAQgMA-35" target="OChGtl6JTXPUs5rAQgMA-66" edge="1">
          <mxGeometry relative="1" as="geometry">
            <mxPoint x="391" y="79" as="sourcePoint" />
            <mxPoint x="450" y="100" as="targetPoint" />
            <Array as="points" />
          </mxGeometry>
        </mxCell>
        <mxCell id="OChGtl6JTXPUs5rAQgMA-84" value="Send Order Report&amp;nbsp; to Supplier" style="rounded=1;whiteSpace=wrap;html=1;shadow=0;labelBackgroundColor=none;strokeWidth=1;fontFamily=Verdana;fontSize=8;align=center;fillColor=#e1d5e7;strokeColor=#9673a6;" parent="2b4e8129b02d487f-4" vertex="1">
          <mxGeometry x="920" y="21" width="70" height="37" as="geometry" />
        </mxCell>
        <mxCell id="OChGtl6JTXPUs5rAQgMA-87" value="Received Supplier DO" style="rounded=1;whiteSpace=wrap;html=1;shadow=0;labelBackgroundColor=none;strokeWidth=1;fontFamily=Verdana;fontSize=8;align=center;fillColor=#e1d5e7;strokeColor=#9673a6;" parent="2b4e8129b02d487f-4" vertex="1">
          <mxGeometry x="484" y="82" width="70" height="37" as="geometry" />
        </mxCell>
        <mxCell id="OChGtl6JTXPUs5rAQgMA-92" value="Send Delivery Notification" style="rounded=1;whiteSpace=wrap;html=1;shadow=0;labelBackgroundColor=none;strokeWidth=1;fontFamily=Verdana;fontSize=8;align=center;fillColor=#e1d5e7;strokeColor=#9673a6;" parent="2b4e8129b02d487f-4" vertex="1">
          <mxGeometry x="714" y="78.5" width="70" height="37" as="geometry" />
        </mxCell>
        <mxCell id="OChGtl6JTXPUs5rAQgMA-100" value="Input Vendor Bill" style="rounded=1;whiteSpace=wrap;html=1;shadow=0;labelBackgroundColor=none;strokeWidth=1;fontFamily=Verdana;fontSize=8;align=center;fillColor=#e1d5e7;strokeColor=#9673a6;" parent="2b4e8129b02d487f-4" vertex="1">
          <mxGeometry x="1000" y="230" width="70" height="37" as="geometry" />
        </mxCell>
        <mxCell id="OChGtl6JTXPUs5rAQgMA-71" value="&lt;div&gt;Parts&lt;/div&gt;&lt;div&gt;Received&lt;/div&gt;" style="rounded=1;whiteSpace=wrap;html=1;shadow=0;labelBackgroundColor=none;strokeWidth=1;fontFamily=Verdana;fontSize=8;align=center;fillColor=#e1d5e7;strokeColor=#9673a6;" parent="2b4e8129b02d487f-4" vertex="1">
          <mxGeometry x="480" y="207.5" width="70" height="37" as="geometry" />
        </mxCell>
        <mxCell id="OChGtl6JTXPUs5rAQgMA-85" style="edgeStyle=orthogonalEdgeStyle;rounded=0;html=1;labelBackgroundColor=none;startArrow=none;startFill=0;startSize=5;endArrow=classicThin;endFill=1;endSize=5;jettySize=auto;orthogonalLoop=1;strokeWidth=1;fontFamily=Verdana;fontSize=8;dashed=1;" parent="2b4e8129b02d487f-4" source="OChGtl6JTXPUs5rAQgMA-71" target="OChGtl6JTXPUs5rAQgMA-84" edge="1">
          <mxGeometry relative="1" as="geometry">
            <mxPoint x="680" y="271" as="sourcePoint" />
            <mxPoint x="727" y="271" as="targetPoint" />
            <Array as="points">
              <mxPoint x="530" y="180" />
              <mxPoint x="900" y="180" />
              <mxPoint x="900" y="30" />
            </Array>
          </mxGeometry>
        </mxCell>
        <mxCell id="OChGtl6JTXPUs5rAQgMA-89" style="edgeStyle=orthogonalEdgeStyle;rounded=0;html=1;labelBackgroundColor=none;startArrow=none;startFill=0;startSize=5;endArrow=classicThin;endFill=1;endSize=5;jettySize=auto;orthogonalLoop=1;strokeWidth=1;fontFamily=Verdana;fontSize=8;dashed=1;" parent="2b4e8129b02d487f-4" source="OChGtl6JTXPUs5rAQgMA-87" target="OChGtl6JTXPUs5rAQgMA-71" edge="1">
          <mxGeometry relative="1" as="geometry">
            <mxPoint x="712" y="100" as="sourcePoint" />
            <mxPoint x="469.95" y="281.9999999999998" as="targetPoint" />
            <Array as="points">
              <mxPoint x="530" y="170" />
              <mxPoint x="500" y="170" />
            </Array>
          </mxGeometry>
        </mxCell>
        <mxCell id="OChGtl6JTXPUs5rAQgMA-77" value="Store Process" style="rounded=1;whiteSpace=wrap;html=1;shadow=0;labelBackgroundColor=none;strokeWidth=1;fontFamily=Verdana;fontSize=8;align=center;fillColor=#e1d5e7;strokeColor=#9673a6;" parent="2b4e8129b02d487f-4" vertex="1">
          <mxGeometry x="567" y="206.5" width="70" height="37" as="geometry" />
        </mxCell>
        <mxCell id="OChGtl6JTXPUs5rAQgMA-80" style="edgeStyle=orthogonalEdgeStyle;rounded=0;html=1;labelBackgroundColor=none;startArrow=none;startFill=0;startSize=5;endArrow=classicThin;endFill=1;endSize=5;jettySize=auto;orthogonalLoop=1;strokeWidth=1;fontFamily=Verdana;fontSize=8;" parent="2b4e8129b02d487f-4" source="OChGtl6JTXPUs5rAQgMA-71" target="OChGtl6JTXPUs5rAQgMA-77" edge="1">
          <mxGeometry relative="1" as="geometry">
            <mxPoint x="630" y="75" as="sourcePoint" />
            <mxPoint x="660" y="75" as="targetPoint" />
            <Array as="points">
              <mxPoint x="560" y="226" />
              <mxPoint x="560" y="226" />
            </Array>
          </mxGeometry>
        </mxCell>
        <mxCell id="OChGtl6JTXPUs5rAQgMA-78" value="Delivery Order" style="rounded=1;whiteSpace=wrap;html=1;shadow=0;labelBackgroundColor=none;strokeWidth=1;fontFamily=Verdana;fontSize=8;align=center;fillColor=#e1d5e7;strokeColor=#9673a6;" parent="2b4e8129b02d487f-4" vertex="1">
          <mxGeometry x="719" y="207.5" width="60" height="37" as="geometry" />
        </mxCell>
        <mxCell id="OChGtl6JTXPUs5rAQgMA-104" style="edgeStyle=orthogonalEdgeStyle;rounded=0;html=1;labelBackgroundColor=none;startArrow=none;startFill=0;startSize=5;endArrow=classicThin;endFill=1;endSize=5;jettySize=auto;orthogonalLoop=1;strokeWidth=1;fontFamily=Verdana;fontSize=8;dashed=1;" parent="2b4e8129b02d487f-4" source="OChGtl6JTXPUs5rAQgMA-31" target="OChGtl6JTXPUs5rAQgMA-78" edge="1">
          <mxGeometry relative="1" as="geometry">
            <mxPoint x="831.95" y="-140" as="sourcePoint" />
            <mxPoint x="599.95" y="21" as="targetPoint" />
            <Array as="points">
              <mxPoint x="684" y="35" />
              <mxPoint x="684" y="140" />
              <mxPoint x="730" y="140" />
            </Array>
          </mxGeometry>
        </mxCell>
        <mxCell id="OChGtl6JTXPUs5rAQgMA-93" style="edgeStyle=orthogonalEdgeStyle;rounded=0;html=1;labelBackgroundColor=none;startArrow=none;startFill=0;startSize=5;endArrow=classicThin;endFill=1;endSize=5;jettySize=auto;orthogonalLoop=1;strokeWidth=1;fontFamily=Verdana;fontSize=8;" parent="2b4e8129b02d487f-4" source="OChGtl6JTXPUs5rAQgMA-78" target="OChGtl6JTXPUs5rAQgMA-92" edge="1">
          <mxGeometry relative="1" as="geometry">
            <mxPoint x="862" y="270" as="sourcePoint" />
            <mxPoint x="852" y="159" as="targetPoint" />
            <Array as="points">
              <mxPoint x="750" y="226" />
            </Array>
          </mxGeometry>
        </mxCell>
        <mxCell id="GMltM3ymVXndYzE7rLGL-8" value="&lt;div&gt;Force Received &amp;amp; Deliver&lt;/div&gt;" style="rounded=1;whiteSpace=wrap;html=1;shadow=0;labelBackgroundColor=none;strokeWidth=1;fontFamily=Verdana;fontSize=8;align=center;fillColor=#e1d5e7;strokeColor=#9673a6;" parent="2b4e8129b02d487f-4" vertex="1">
          <mxGeometry x="791" y="206.5" width="70" height="37" as="geometry" />
        </mxCell>
        <mxCell id="GMltM3ymVXndYzE7rLGL-11" style="edgeStyle=orthogonalEdgeStyle;rounded=0;html=1;labelBackgroundColor=none;startArrow=none;startFill=0;startSize=5;endArrow=classicThin;endFill=1;endSize=5;jettySize=auto;orthogonalLoop=1;strokeWidth=1;fontFamily=Verdana;fontSize=8;dashed=1;" parent="2b4e8129b02d487f-4" source="GMltM3ymVXndYzE7rLGL-8" target="OChGtl6JTXPUs5rAQgMA-84" edge="1">
          <mxGeometry relative="1" as="geometry">
            <mxPoint x="533" y="274" as="sourcePoint" />
            <mxPoint x="802" y="77" as="targetPoint" />
            <Array as="points">
              <mxPoint x="940" y="225" />
            </Array>
          </mxGeometry>
        </mxCell>
        <mxCell id="-D6VUE0MxRy48ILgnxTh-1" value="" style="ellipse;whiteSpace=wrap;html=1;rounded=0;shadow=0;labelBackgroundColor=none;strokeWidth=1;fontFamily=Verdana;fontSize=8;align=center;fillColor=#000000;" parent="2b4e8129b02d487f-4" vertex="1">
          <mxGeometry x="1020" y="170" width="30" height="30" as="geometry" />
        </mxCell>
        <mxCell id="-D6VUE0MxRy48ILgnxTh-2" value="Create Customer Invoice" style="rounded=1;whiteSpace=wrap;html=1;shadow=0;labelBackgroundColor=none;strokeWidth=1;fontFamily=Verdana;fontSize=8;align=center;fillColor=#e1d5e7;strokeColor=#9673a6;" parent="2b4e8129b02d487f-4" vertex="1">
          <mxGeometry x="1000" y="90" width="70" height="37" as="geometry" />
        </mxCell>
        <mxCell id="-D6VUE0MxRy48ILgnxTh-4" style="edgeStyle=orthogonalEdgeStyle;rounded=0;html=1;labelBackgroundColor=none;startArrow=none;startFill=0;startSize=5;endArrow=classicThin;endFill=1;endSize=5;jettySize=auto;orthogonalLoop=1;strokeWidth=1;fontFamily=Verdana;fontSize=8;" parent="2b4e8129b02d487f-4" source="-D6VUE0MxRy48ILgnxTh-2" target="-D6VUE0MxRy48ILgnxTh-1" edge="1">
          <mxGeometry relative="1" as="geometry">
            <mxPoint x="1068" y="-75" as="sourcePoint" />
            <mxPoint x="1217" y="103" as="targetPoint" />
            <Array as="points" />
          </mxGeometry>
        </mxCell>
        <mxCell id="-D6VUE0MxRy48ILgnxTh-6" style="edgeStyle=orthogonalEdgeStyle;rounded=0;html=1;labelBackgroundColor=none;startArrow=none;startFill=0;startSize=5;endArrow=classicThin;endFill=1;endSize=5;jettySize=auto;orthogonalLoop=1;strokeWidth=1;fontFamily=Verdana;fontSize=8;" parent="2b4e8129b02d487f-4" source="OChGtl6JTXPUs5rAQgMA-100" target="-D6VUE0MxRy48ILgnxTh-1" edge="1">
          <mxGeometry relative="1" as="geometry">
            <mxPoint x="1216" y="550" as="sourcePoint" />
            <mxPoint x="1217" y="287" as="targetPoint" />
            <Array as="points" />
          </mxGeometry>
        </mxCell>
        <mxCell id="H8-8fgQMa_ZMKyO4CBSe-15" value="Export?" style="strokeWidth=1;html=1;shape=mxgraph.flowchart.decision;whiteSpace=wrap;rounded=1;shadow=0;labelBackgroundColor=none;fontFamily=Verdana;fontSize=8;align=center;" parent="2b4e8129b02d487f-4" vertex="1">
          <mxGeometry x="649.31" y="250" width="50" height="45" as="geometry" />
        </mxCell>
        <mxCell id="H8-8fgQMa_ZMKyO4CBSe-19" style="edgeStyle=orthogonalEdgeStyle;rounded=0;html=1;labelBackgroundColor=none;startArrow=none;startFill=0;startSize=5;endArrow=classicThin;endFill=1;endSize=5;jettySize=auto;orthogonalLoop=1;strokeWidth=1;fontFamily=Verdana;fontSize=8;" parent="2b4e8129b02d487f-4" source="OChGtl6JTXPUs5rAQgMA-77" target="H8-8fgQMa_ZMKyO4CBSe-15" edge="1">
          <mxGeometry relative="1" as="geometry">
            <mxPoint x="560" y="236" as="sourcePoint" />
            <mxPoint x="577" y="236" as="targetPoint" />
            <Array as="points">
              <mxPoint x="602" y="273" />
            </Array>
          </mxGeometry>
        </mxCell>
        <mxCell id="H8-8fgQMa_ZMKyO4CBSe-20" style="edgeStyle=orthogonalEdgeStyle;rounded=0;html=1;labelBackgroundColor=none;startArrow=none;startFill=0;startSize=5;endArrow=classicThin;endFill=1;endSize=5;jettySize=auto;orthogonalLoop=1;strokeWidth=1;fontFamily=Verdana;fontSize=8;" parent="2b4e8129b02d487f-4" source="H8-8fgQMa_ZMKyO4CBSe-15" target="OChGtl6JTXPUs5rAQgMA-78" edge="1">
          <mxGeometry relative="1" as="geometry">
            <mxPoint x="612" y="254" as="sourcePoint" />
            <mxPoint x="659" y="283" as="targetPoint" />
            <Array as="points">
              <mxPoint x="674" y="226" />
            </Array>
          </mxGeometry>
        </mxCell>
        <mxCell id="H8-8fgQMa_ZMKyO4CBSe-25" value="&lt;font style=&quot;font-size: 9px;&quot;&gt;No&lt;/font&gt;" style="edgeLabel;html=1;align=center;verticalAlign=middle;resizable=0;points=[];fontSize=12;" parent="H8-8fgQMa_ZMKyO4CBSe-20" vertex="1" connectable="0">
          <mxGeometry x="-0.3456" y="1" relative="1" as="geometry">
            <mxPoint as="offset" />
          </mxGeometry>
        </mxCell>
        <mxCell id="OChGtl6JTXPUs5rAQgMA-33" style="edgeStyle=orthogonalEdgeStyle;rounded=0;html=1;labelBackgroundColor=none;startArrow=none;startFill=0;startSize=5;endArrow=classicThin;endFill=1;endSize=5;jettySize=auto;orthogonalLoop=1;strokeWidth=1;fontFamily=Verdana;fontSize=8;" parent="2b4e8129b02d487f-1" source="OChGtl6JTXPUs5rAQgMA-28" target="2b4e8129b02d487f-6" edge="1">
          <mxGeometry relative="1" as="geometry">
            <mxPoint x="342" y="360" as="sourcePoint" />
            <mxPoint x="234.99999999999977" y="278.07692307692287" as="targetPoint" />
            <Array as="points">
              <mxPoint x="216" y="120" />
              <mxPoint x="90" y="120" />
            </Array>
          </mxGeometry>
        </mxCell>
        <mxCell id="OChGtl6JTXPUs5rAQgMA-38" value="Vendor" style="swimlane;html=1;startSize=20;horizontal=0;" parent="2b4e8129b02d487f-1" vertex="1">
          <mxGeometry y="530" width="1080" height="120" as="geometry" />
        </mxCell>
        <mxCell id="OChGtl6JTXPUs5rAQgMA-39" value="Order Received&lt;div&gt;and Approval&lt;/div&gt;" style="rounded=1;whiteSpace=wrap;html=1;shadow=0;labelBackgroundColor=none;strokeWidth=1;fontFamily=Verdana;fontSize=8;align=center;fillColor=#d80073;fontColor=#ffffff;strokeColor=#A50040;" parent="OChGtl6JTXPUs5rAQgMA-38" vertex="1">
          <mxGeometry x="81" y="29" width="70" height="37" as="geometry" />
        </mxCell>
        <mxCell id="OChGtl6JTXPUs5rAQgMA-70" style="edgeStyle=orthogonalEdgeStyle;rounded=0;html=1;labelBackgroundColor=none;startArrow=none;startFill=0;startSize=5;endArrow=classicThin;endFill=1;endSize=5;jettySize=auto;orthogonalLoop=1;strokeWidth=1;fontFamily=Verdana;fontSize=8;" parent="OChGtl6JTXPUs5rAQgMA-38" source="GMltM3ymVXndYzE7rLGL-5" target="H8-8fgQMa_ZMKyO4CBSe-1" edge="1">
          <mxGeometry relative="1" as="geometry">
            <mxPoint x="512" y="-339" as="sourcePoint" />
            <mxPoint x="290" y="47.48484848484861" as="targetPoint" />
            <Array as="points" />
          </mxGeometry>
        </mxCell>
        <mxCell id="OChGtl6JTXPUs5rAQgMA-98" value="Send Bill" style="rounded=1;whiteSpace=wrap;html=1;shadow=0;labelBackgroundColor=none;strokeWidth=1;fontFamily=Verdana;fontSize=8;align=center;" parent="OChGtl6JTXPUs5rAQgMA-38" vertex="1">
          <mxGeometry x="920" y="33" width="70" height="37" as="geometry" />
        </mxCell>
        <mxCell id="GMltM3ymVXndYzE7rLGL-5" value="Input/Upload DO" style="rounded=1;whiteSpace=wrap;html=1;shadow=0;labelBackgroundColor=none;strokeWidth=1;fontFamily=Verdana;fontSize=8;align=center;strokeColor=#A50040;verticalAlign=middle;fontColor=#ffffff;fillColor=#d80073;" parent="OChGtl6JTXPUs5rAQgMA-38" vertex="1">
          <mxGeometry x="184" y="29" width="70" height="37" as="geometry" />
        </mxCell>
        <mxCell id="GMltM3ymVXndYzE7rLGL-7" style="edgeStyle=orthogonalEdgeStyle;rounded=0;html=1;labelBackgroundColor=none;startArrow=none;startFill=0;startSize=5;endArrow=classicThin;endFill=1;endSize=5;jettySize=auto;orthogonalLoop=1;strokeWidth=1;fontFamily=Verdana;fontSize=8;" parent="OChGtl6JTXPUs5rAQgMA-38" source="OChGtl6JTXPUs5rAQgMA-39" target="GMltM3ymVXndYzE7rLGL-5" edge="1">
          <mxGeometry relative="1" as="geometry">
            <mxPoint x="233" y="79" as="sourcePoint" />
            <mxPoint x="313" y="90" as="targetPoint" />
            <Array as="points">
              <mxPoint x="166" y="48" />
              <mxPoint x="166" y="48" />
            </Array>
          </mxGeometry>
        </mxCell>
        <mxCell id="OChGtl6JTXPUs5rAQgMA-73" value="To Pasi?" style="strokeWidth=1;html=1;shape=mxgraph.flowchart.decision;whiteSpace=wrap;rounded=1;shadow=0;labelBackgroundColor=none;fontFamily=Verdana;fontSize=8;align=center;" parent="OChGtl6JTXPUs5rAQgMA-38" vertex="1">
          <mxGeometry x="470" y="25" width="50" height="45" as="geometry" />
        </mxCell>
        <mxCell id="OChGtl6JTXPUs5rAQgMA-74" style="edgeStyle=orthogonalEdgeStyle;rounded=0;html=1;labelBackgroundColor=none;startArrow=none;startFill=0;startSize=5;endArrow=classicThin;endFill=1;endSize=5;jettySize=auto;orthogonalLoop=1;strokeWidth=1;fontFamily=Verdana;fontSize=8;" parent="OChGtl6JTXPUs5rAQgMA-38" source="H8-8fgQMa_ZMKyO4CBSe-3" target="OChGtl6JTXPUs5rAQgMA-73" edge="1">
          <mxGeometry relative="1" as="geometry">
            <mxPoint x="430" y="50" as="sourcePoint" />
            <mxPoint x="393" y="38" as="targetPoint" />
            <Array as="points" />
          </mxGeometry>
        </mxCell>
        <mxCell id="H8-8fgQMa_ZMKyO4CBSe-1" value="Import?" style="strokeWidth=1;html=1;shape=mxgraph.flowchart.decision;whiteSpace=wrap;rounded=1;shadow=0;labelBackgroundColor=none;fontFamily=Verdana;fontSize=8;align=center;" parent="OChGtl6JTXPUs5rAQgMA-38" vertex="1">
          <mxGeometry x="290" y="25" width="50" height="45" as="geometry" />
        </mxCell>
        <mxCell id="H8-8fgQMa_ZMKyO4CBSe-3" value="Deliver" style="rounded=1;whiteSpace=wrap;html=1;shadow=0;labelBackgroundColor=none;strokeWidth=1;fontFamily=Verdana;fontSize=8;align=center;verticalAlign=middle;" parent="OChGtl6JTXPUs5rAQgMA-38" vertex="1">
          <mxGeometry x="373" y="29" width="70" height="37" as="geometry" />
        </mxCell>
        <mxCell id="H8-8fgQMa_ZMKyO4CBSe-5" style="edgeStyle=orthogonalEdgeStyle;rounded=0;html=1;labelBackgroundColor=none;startArrow=none;startFill=0;startSize=5;endArrow=classicThin;endFill=1;endSize=5;jettySize=auto;orthogonalLoop=1;strokeWidth=1;fontFamily=Verdana;fontSize=8;" parent="OChGtl6JTXPUs5rAQgMA-38" source="H8-8fgQMa_ZMKyO4CBSe-1" target="H8-8fgQMa_ZMKyO4CBSe-3" edge="1">
          <mxGeometry relative="1" as="geometry">
            <mxPoint x="264" y="58" as="sourcePoint" />
            <mxPoint x="300" y="58" as="targetPoint" />
            <Array as="points" />
          </mxGeometry>
        </mxCell>
        <mxCell id="H8-8fgQMa_ZMKyO4CBSe-21" value="Export?" style="strokeWidth=1;html=1;shape=mxgraph.flowchart.decision;whiteSpace=wrap;rounded=1;shadow=0;labelBackgroundColor=none;fontFamily=Verdana;fontSize=8;align=center;" parent="OChGtl6JTXPUs5rAQgMA-38" vertex="1">
          <mxGeometry x="580" y="25" width="50" height="45" as="geometry" />
        </mxCell>
        <mxCell id="OChGtl6JTXPUs5rAQgMA-76" style="edgeStyle=orthogonalEdgeStyle;rounded=0;html=1;labelBackgroundColor=none;startArrow=none;startFill=0;startSize=5;endArrow=classicThin;endFill=1;endSize=5;jettySize=auto;orthogonalLoop=1;strokeWidth=1;fontFamily=Verdana;fontSize=8;" parent="OChGtl6JTXPUs5rAQgMA-38" source="OChGtl6JTXPUs5rAQgMA-73" target="H8-8fgQMa_ZMKyO4CBSe-21" edge="1">
          <mxGeometry relative="1" as="geometry">
            <mxPoint x="552" y="328" as="sourcePoint" />
            <mxPoint x="1020.0434782608697" y="105.5" as="targetPoint" />
            <Array as="points">
              <mxPoint x="570" y="48" />
              <mxPoint x="570" y="48" />
            </Array>
          </mxGeometry>
        </mxCell>
        <mxCell id="bfZTL-geVbeJQ1GXdaqd-3" value="&lt;font style=&quot;font-size: 9px;&quot;&gt;No&lt;/font&gt;" style="edgeLabel;html=1;align=center;verticalAlign=middle;resizable=0;points=[];fontSize=12;" parent="OChGtl6JTXPUs5rAQgMA-76" vertex="1" connectable="0">
          <mxGeometry x="-0.8136" y="3" relative="1" as="geometry">
            <mxPoint x="15" y="3" as="offset" />
          </mxGeometry>
        </mxCell>
        <mxCell id="OChGtl6JTXPUs5rAQgMA-68" style="edgeStyle=orthogonalEdgeStyle;rounded=0;html=1;labelBackgroundColor=none;startArrow=none;startFill=0;startSize=5;endArrow=classicThin;endFill=1;endSize=5;jettySize=auto;orthogonalLoop=1;strokeWidth=1;fontFamily=Verdana;fontSize=8;" parent="2b4e8129b02d487f-1" source="OChGtl6JTXPUs5rAQgMA-66" target="OChGtl6JTXPUs5rAQgMA-39" edge="1">
          <mxGeometry relative="1" as="geometry">
            <mxPoint x="512" y="431" as="sourcePoint" />
            <mxPoint x="502" y="710" as="targetPoint" />
            <Array as="points">
              <mxPoint x="430" y="350" />
              <mxPoint x="116" y="350" />
            </Array>
          </mxGeometry>
        </mxCell>
        <mxCell id="OChGtl6JTXPUs5rAQgMA-72" style="edgeStyle=orthogonalEdgeStyle;rounded=0;html=1;labelBackgroundColor=none;startArrow=none;startFill=0;startSize=5;endArrow=classicThin;endFill=1;endSize=5;jettySize=auto;orthogonalLoop=1;strokeWidth=1;fontFamily=Verdana;fontSize=8;" parent="2b4e8129b02d487f-1" source="OChGtl6JTXPUs5rAQgMA-73" target="OChGtl6JTXPUs5rAQgMA-71" edge="1">
          <mxGeometry relative="1" as="geometry">
            <mxPoint x="528" y="836" as="sourcePoint" />
            <mxPoint x="530" y="540" as="targetPoint" />
            <Array as="points">
              <mxPoint x="495" y="500" />
              <mxPoint x="495" y="500" />
            </Array>
          </mxGeometry>
        </mxCell>
        <mxCell id="bfZTL-geVbeJQ1GXdaqd-1" value="&lt;font style=&quot;font-size: 9px;&quot;&gt;Yes&lt;/font&gt;" style="edgeLabel;html=1;align=center;verticalAlign=middle;resizable=0;points=[];fontSize=12;" parent="OChGtl6JTXPUs5rAQgMA-72" vertex="1" connectable="0">
          <mxGeometry x="-0.1836" y="1" relative="1" as="geometry">
            <mxPoint x="1" y="14" as="offset" />
          </mxGeometry>
        </mxCell>
        <mxCell id="OChGtl6JTXPUs5rAQgMA-82" style="edgeStyle=orthogonalEdgeStyle;rounded=0;html=1;labelBackgroundColor=none;startArrow=none;startFill=0;startSize=5;endArrow=classicThin;endFill=1;endSize=5;jettySize=auto;orthogonalLoop=1;strokeWidth=1;fontFamily=Verdana;fontSize=8;" parent="2b4e8129b02d487f-1" source="OChGtl6JTXPUs5rAQgMA-92" target="OChGtl6JTXPUs5rAQgMA-75" edge="1">
          <mxGeometry relative="1" as="geometry">
            <mxPoint x="748" y="590" as="sourcePoint" />
            <mxPoint x="808" y="480" as="targetPoint" />
            <Array as="points">
              <mxPoint x="749" y="158" />
            </Array>
          </mxGeometry>
        </mxCell>
        <mxCell id="OChGtl6JTXPUs5rAQgMA-88" style="edgeStyle=orthogonalEdgeStyle;rounded=0;html=1;labelBackgroundColor=none;startArrow=none;startFill=0;startSize=5;endArrow=classicThin;endFill=1;endSize=5;jettySize=auto;orthogonalLoop=1;strokeWidth=1;fontFamily=Verdana;fontSize=8;" parent="2b4e8129b02d487f-1" source="GMltM3ymVXndYzE7rLGL-5" target="OChGtl6JTXPUs5rAQgMA-87" edge="1">
          <mxGeometry relative="1" as="geometry">
            <mxPoint x="463" y="879" as="sourcePoint" />
            <mxPoint x="535" y="770" as="targetPoint" />
            <Array as="points">
              <mxPoint x="219" y="410" />
              <mxPoint x="270" y="410" />
              <mxPoint x="270" y="370" />
              <mxPoint x="520" y="370" />
            </Array>
          </mxGeometry>
        </mxCell>
        <mxCell id="OChGtl6JTXPUs5rAQgMA-95" style="edgeStyle=orthogonalEdgeStyle;rounded=0;html=1;labelBackgroundColor=none;startArrow=none;startFill=0;startSize=5;endArrow=classicThin;endFill=1;endSize=5;jettySize=auto;orthogonalLoop=1;strokeWidth=1;fontFamily=Verdana;fontSize=8;" parent="2b4e8129b02d487f-1" source="OChGtl6JTXPUs5rAQgMA-84" target="OChGtl6JTXPUs5rAQgMA-98" edge="1">
          <mxGeometry relative="1" as="geometry">
            <mxPoint x="762" y="774" as="sourcePoint" />
            <mxPoint x="1102" y="541.5" as="targetPoint" />
            <Array as="points">
              <mxPoint x="960" y="420" />
              <mxPoint x="960" y="420" />
            </Array>
          </mxGeometry>
        </mxCell>
        <mxCell id="GMltM3ymVXndYzE7rLGL-3" style="edgeStyle=orthogonalEdgeStyle;rounded=0;html=1;labelBackgroundColor=none;startArrow=none;startFill=0;startSize=5;endArrow=classicThin;endFill=1;endSize=5;jettySize=auto;orthogonalLoop=1;strokeWidth=1;fontFamily=Verdana;fontSize=8;" parent="2b4e8129b02d487f-1" source="GMltM3ymVXndYzE7rLGL-1" target="OChGtl6JTXPUs5rAQgMA-20" edge="1">
          <mxGeometry relative="1" as="geometry">
            <mxPoint x="127" y="307" as="sourcePoint" />
            <mxPoint x="190.04347826086973" y="273" as="targetPoint" />
            <Array as="points">
              <mxPoint x="160" y="68" />
            </Array>
          </mxGeometry>
        </mxCell>
        <mxCell id="2b4e8129b02d487f-18" style="edgeStyle=orthogonalEdgeStyle;rounded=0;html=1;labelBackgroundColor=none;startArrow=none;startFill=0;startSize=5;endArrow=classicThin;endFill=1;endSize=5;jettySize=auto;orthogonalLoop=1;strokeWidth=1;fontFamily=Verdana;fontSize=8" parent="2b4e8129b02d487f-1" source="2b4e8129b02d487f-5" target="2b4e8129b02d487f-6" edge="1">
          <mxGeometry relative="1" as="geometry">
            <Array as="points">
              <mxPoint x="45" y="156" />
            </Array>
          </mxGeometry>
        </mxCell>
        <mxCell id="GMltM3ymVXndYzE7rLGL-10" style="edgeStyle=orthogonalEdgeStyle;rounded=0;html=1;labelBackgroundColor=none;startArrow=none;startFill=0;startSize=5;endArrow=classicThin;endFill=1;endSize=5;jettySize=auto;orthogonalLoop=1;strokeWidth=1;fontFamily=Verdana;fontSize=8;" parent="2b4e8129b02d487f-1" source="GMltM3ymVXndYzE7rLGL-8" target="OChGtl6JTXPUs5rAQgMA-75" edge="1">
          <mxGeometry relative="1" as="geometry">
            <mxPoint x="887" y="610" as="sourcePoint" />
            <mxPoint x="1042" y="290" as="targetPoint" />
            <Array as="points">
              <mxPoint x="826" y="340" />
              <mxPoint x="826" y="340" />
            </Array>
          </mxGeometry>
        </mxCell>
        <mxCell id="bfZTL-geVbeJQ1GXdaqd-6" style="edgeStyle=orthogonalEdgeStyle;rounded=0;html=1;labelBackgroundColor=none;startArrow=none;startFill=0;startSize=5;endArrow=classicThin;endFill=1;endSize=5;jettySize=auto;orthogonalLoop=1;strokeWidth=1;fontFamily=Verdana;fontSize=8;" parent="2b4e8129b02d487f-1" source="OChGtl6JTXPUs5rAQgMA-28" target="GMltM3ymVXndYzE7rLGL-1" edge="1">
          <mxGeometry relative="1" as="geometry">
            <mxPoint x="365" y="383" as="sourcePoint" />
            <mxPoint x="173" y="289" as="targetPoint" />
            <Array as="points">
              <mxPoint x="216" y="30" />
              <mxPoint x="109" y="30" />
            </Array>
          </mxGeometry>
        </mxCell>
        <mxCell id="bfZTL-geVbeJQ1GXdaqd-8" value="No" style="edgeLabel;html=1;align=center;verticalAlign=middle;resizable=0;points=[];fontSize=12;" parent="bfZTL-geVbeJQ1GXdaqd-6" vertex="1" connectable="0">
          <mxGeometry x="-0.845" y="1" relative="1" as="geometry">
            <mxPoint x="1" y="-12" as="offset" />
          </mxGeometry>
        </mxCell>
        <mxCell id="OChGtl6JTXPUs5rAQgMA-23" style="edgeStyle=orthogonalEdgeStyle;rounded=0;html=1;labelBackgroundColor=none;startArrow=none;startFill=0;startSize=5;endArrow=classicThin;endFill=1;endSize=5;jettySize=auto;orthogonalLoop=1;strokeWidth=1;fontFamily=Verdana;fontSize=8;" parent="2b4e8129b02d487f-1" source="2b4e8129b02d487f-6" target="OChGtl6JTXPUs5rAQgMA-20" edge="1">
          <mxGeometry relative="1" as="geometry">
            <mxPoint x="199.99999999999977" y="297" as="sourcePoint" />
            <mxPoint x="242" y="387" as="targetPoint" />
            <Array as="points">
              <mxPoint x="90" y="283" />
            </Array>
          </mxGeometry>
        </mxCell>
        <mxCell id="-D6VUE0MxRy48ILgnxTh-3" style="edgeStyle=orthogonalEdgeStyle;rounded=0;html=1;labelBackgroundColor=none;startArrow=none;startFill=0;startSize=5;endArrow=classicThin;endFill=1;endSize=5;jettySize=auto;orthogonalLoop=1;strokeWidth=1;fontFamily=Verdana;fontSize=8;" parent="2b4e8129b02d487f-1" source="OChGtl6JTXPUs5rAQgMA-75" target="-D6VUE0MxRy48ILgnxTh-2" edge="1">
          <mxGeometry relative="1" as="geometry">
            <mxPoint x="972" y="460" as="sourcePoint" />
            <mxPoint x="998" y="245" as="targetPoint" />
            <Array as="points">
              <mxPoint x="1035" y="159" />
            </Array>
          </mxGeometry>
        </mxCell>
        <mxCell id="-D6VUE0MxRy48ILgnxTh-5" style="edgeStyle=orthogonalEdgeStyle;rounded=0;html=1;labelBackgroundColor=none;startArrow=none;startFill=0;startSize=5;endArrow=classicThin;endFill=1;endSize=5;jettySize=auto;orthogonalLoop=1;strokeWidth=1;fontFamily=Verdana;fontSize=8;" parent="2b4e8129b02d487f-1" source="OChGtl6JTXPUs5rAQgMA-98" target="OChGtl6JTXPUs5rAQgMA-100" edge="1">
          <mxGeometry relative="1" as="geometry">
            <mxPoint x="494" y="918" as="sourcePoint" />
            <mxPoint x="535" y="780" as="targetPoint" />
            <Array as="points" />
          </mxGeometry>
        </mxCell>
        <mxCell id="OChGtl6JTXPUs5rAQgMA-9" value="Forwarder" style="swimlane;html=1;startSize=20;horizontal=0;" parent="2b4e8129b02d487f-1" vertex="1">
          <mxGeometry y="650" width="1080" height="100" as="geometry" />
        </mxCell>
        <mxCell id="H8-8fgQMa_ZMKyO4CBSe-2" value="Deliver" style="rounded=1;whiteSpace=wrap;html=1;shadow=0;labelBackgroundColor=none;strokeWidth=1;fontFamily=Verdana;fontSize=8;align=center;verticalAlign=middle;" parent="OChGtl6JTXPUs5rAQgMA-9" vertex="1">
          <mxGeometry x="280" y="30" width="70" height="37" as="geometry" />
        </mxCell>
        <mxCell id="H8-8fgQMa_ZMKyO4CBSe-22" value="Part Received" style="rounded=1;whiteSpace=wrap;html=1;shadow=0;labelBackgroundColor=none;strokeWidth=1;fontFamily=Verdana;fontSize=8;align=center;strokeColor=#A50040;verticalAlign=middle;fontColor=#ffffff;fillColor=#d80073;" parent="OChGtl6JTXPUs5rAQgMA-9" vertex="1">
          <mxGeometry x="570" y="20" width="70" height="37" as="geometry" />
        </mxCell>
        <mxCell id="H8-8fgQMa_ZMKyO4CBSe-30" value="Input Tally Data" style="rounded=1;whiteSpace=wrap;html=1;shadow=0;labelBackgroundColor=none;strokeWidth=1;fontFamily=Verdana;fontSize=8;align=center;strokeColor=#A50040;verticalAlign=middle;fontColor=#ffffff;fillColor=#d80073;" parent="OChGtl6JTXPUs5rAQgMA-9" vertex="1">
          <mxGeometry x="670" y="20" width="70" height="37" as="geometry" />
        </mxCell>
        <mxCell id="H8-8fgQMa_ZMKyO4CBSe-31" value="Delivery Order" style="rounded=1;whiteSpace=wrap;html=1;shadow=0;labelBackgroundColor=none;strokeWidth=1;fontFamily=Verdana;fontSize=8;align=center;strokeColor=#A50040;verticalAlign=middle;fontColor=#ffffff;fillColor=#d80073;" parent="OChGtl6JTXPUs5rAQgMA-9" vertex="1">
          <mxGeometry x="770" y="20" width="70" height="37" as="geometry" />
        </mxCell>
        <mxCell id="H8-8fgQMa_ZMKyO4CBSe-34" style="edgeStyle=orthogonalEdgeStyle;rounded=0;html=1;labelBackgroundColor=none;startArrow=none;startFill=0;startSize=5;endArrow=classicThin;endFill=1;endSize=5;jettySize=auto;orthogonalLoop=1;strokeWidth=1;fontFamily=Verdana;fontSize=8;" parent="OChGtl6JTXPUs5rAQgMA-9" source="H8-8fgQMa_ZMKyO4CBSe-22" target="H8-8fgQMa_ZMKyO4CBSe-30" edge="1">
          <mxGeometry relative="1" as="geometry">
            <mxPoint x="453" y="-63" as="sourcePoint" />
            <mxPoint x="480" y="-63" as="targetPoint" />
            <Array as="points" />
          </mxGeometry>
        </mxCell>
        <mxCell id="H8-8fgQMa_ZMKyO4CBSe-35" style="edgeStyle=orthogonalEdgeStyle;rounded=0;html=1;labelBackgroundColor=none;startArrow=none;startFill=0;startSize=5;endArrow=classicThin;endFill=1;endSize=5;jettySize=auto;orthogonalLoop=1;strokeWidth=1;fontFamily=Verdana;fontSize=8;" parent="OChGtl6JTXPUs5rAQgMA-9" source="H8-8fgQMa_ZMKyO4CBSe-30" target="H8-8fgQMa_ZMKyO4CBSe-31" edge="1">
          <mxGeometry relative="1" as="geometry">
            <mxPoint x="650" y="49" as="sourcePoint" />
            <mxPoint x="680" y="49" as="targetPoint" />
            <Array as="points" />
          </mxGeometry>
        </mxCell>
        <mxCell id="H8-8fgQMa_ZMKyO4CBSe-4" style="edgeStyle=orthogonalEdgeStyle;rounded=0;html=1;labelBackgroundColor=none;startArrow=none;startFill=0;startSize=5;endArrow=classicThin;endFill=1;endSize=5;jettySize=auto;orthogonalLoop=1;strokeWidth=1;fontFamily=Verdana;fontSize=8;" parent="2b4e8129b02d487f-1" source="H8-8fgQMa_ZMKyO4CBSe-1" target="H8-8fgQMa_ZMKyO4CBSe-2" edge="1">
          <mxGeometry relative="1" as="geometry">
            <mxPoint x="370" y="617.5" as="sourcePoint" />
            <mxPoint x="416" y="617" as="targetPoint" />
            <Array as="points" />
          </mxGeometry>
        </mxCell>
        <mxCell id="H8-8fgQMa_ZMKyO4CBSe-7" value="PLB" style="swimlane;html=1;startSize=20;horizontal=0;" parent="2b4e8129b02d487f-1" vertex="1">
          <mxGeometry y="750" width="1080" height="80" as="geometry" />
        </mxCell>
        <mxCell id="H8-8fgQMa_ZMKyO4CBSe-9" value="Part Received" style="rounded=1;whiteSpace=wrap;html=1;shadow=0;labelBackgroundColor=none;strokeWidth=1;fontFamily=Verdana;fontSize=8;align=center;strokeColor=#A50040;verticalAlign=middle;fontColor=#ffffff;fillColor=#d80073;" parent="H8-8fgQMa_ZMKyO4CBSe-7" vertex="1">
          <mxGeometry x="279" y="24" width="70" height="37" as="geometry" />
        </mxCell>
        <mxCell id="H8-8fgQMa_ZMKyO4CBSe-12" value="Delivery Order" style="rounded=1;whiteSpace=wrap;html=1;shadow=0;labelBackgroundColor=none;strokeWidth=1;fontFamily=Verdana;fontSize=8;align=center;strokeColor=#A50040;verticalAlign=middle;fontColor=#ffffff;fillColor=#d80073;" parent="H8-8fgQMa_ZMKyO4CBSe-7" vertex="1">
          <mxGeometry x="400" y="24" width="70" height="37" as="geometry" />
        </mxCell>
        <mxCell id="H8-8fgQMa_ZMKyO4CBSe-13" style="edgeStyle=orthogonalEdgeStyle;rounded=0;html=1;labelBackgroundColor=none;startArrow=none;startFill=0;startSize=5;endArrow=classicThin;endFill=1;endSize=5;jettySize=auto;orthogonalLoop=1;strokeWidth=1;fontFamily=Verdana;fontSize=8;" parent="H8-8fgQMa_ZMKyO4CBSe-7" source="H8-8fgQMa_ZMKyO4CBSe-9" target="H8-8fgQMa_ZMKyO4CBSe-12" edge="1">
          <mxGeometry relative="1" as="geometry">
            <mxPoint x="325" y="-29" as="sourcePoint" />
            <mxPoint x="325" y="34" as="targetPoint" />
            <Array as="points" />
          </mxGeometry>
        </mxCell>
        <mxCell id="H8-8fgQMa_ZMKyO4CBSe-11" style="edgeStyle=orthogonalEdgeStyle;rounded=0;html=1;labelBackgroundColor=none;startArrow=none;startFill=0;startSize=5;endArrow=classicThin;endFill=1;endSize=5;jettySize=auto;orthogonalLoop=1;strokeWidth=1;fontFamily=Verdana;fontSize=8;" parent="2b4e8129b02d487f-1" source="H8-8fgQMa_ZMKyO4CBSe-2" target="H8-8fgQMa_ZMKyO4CBSe-9" edge="1">
          <mxGeometry relative="1" as="geometry">
            <mxPoint x="325" y="590" as="sourcePoint" />
            <mxPoint x="469" y="682.52" as="targetPoint" />
            <Array as="points">
              <mxPoint x="315" y="740" />
              <mxPoint x="315" y="740" />
            </Array>
          </mxGeometry>
        </mxCell>
        <mxCell id="H8-8fgQMa_ZMKyO4CBSe-14" style="edgeStyle=orthogonalEdgeStyle;rounded=0;html=1;labelBackgroundColor=none;startArrow=none;startFill=0;startSize=5;endArrow=classicThin;endFill=1;endSize=5;jettySize=auto;orthogonalLoop=1;strokeWidth=1;fontFamily=Verdana;fontSize=8;" parent="2b4e8129b02d487f-1" source="H8-8fgQMa_ZMKyO4CBSe-12" target="OChGtl6JTXPUs5rAQgMA-75" edge="1">
          <mxGeometry relative="1" as="geometry">
            <mxPoint x="325" y="707" as="sourcePoint" />
            <mxPoint x="810" y="680" as="targetPoint" />
            <Array as="points">
              <mxPoint x="880" y="792" />
              <mxPoint x="880" y="170" />
            </Array>
          </mxGeometry>
        </mxCell>
        <mxCell id="H8-8fgQMa_ZMKyO4CBSe-23" style="edgeStyle=orthogonalEdgeStyle;rounded=0;html=1;labelBackgroundColor=none;startArrow=none;startFill=0;startSize=5;endArrow=classicThin;endFill=1;endSize=5;jettySize=auto;orthogonalLoop=1;strokeWidth=1;fontFamily=Verdana;fontSize=8;" parent="2b4e8129b02d487f-1" source="H8-8fgQMa_ZMKyO4CBSe-15" target="H8-8fgQMa_ZMKyO4CBSe-22" edge="1">
          <mxGeometry relative="1" as="geometry">
            <mxPoint x="612" y="474" as="sourcePoint" />
            <mxPoint x="659" y="503" as="targetPoint" />
            <Array as="points">
              <mxPoint x="674" y="640" />
              <mxPoint x="620" y="640" />
            </Array>
          </mxGeometry>
        </mxCell>
        <mxCell id="H8-8fgQMa_ZMKyO4CBSe-29" value="&lt;font style=&quot;font-size: 9px;&quot;&gt;Yes&lt;/font&gt;" style="edgeLabel;html=1;align=center;verticalAlign=middle;resizable=0;points=[];fontSize=12;" parent="H8-8fgQMa_ZMKyO4CBSe-23" vertex="1" connectable="0">
          <mxGeometry x="-0.7344" y="-1" relative="1" as="geometry">
            <mxPoint x="1" y="3" as="offset" />
          </mxGeometry>
        </mxCell>
        <mxCell id="H8-8fgQMa_ZMKyO4CBSe-24" style="edgeStyle=orthogonalEdgeStyle;rounded=0;html=1;labelBackgroundColor=none;startArrow=none;startFill=0;startSize=5;endArrow=classicThin;endFill=1;endSize=5;jettySize=auto;orthogonalLoop=1;strokeWidth=1;fontFamily=Verdana;fontSize=8;" parent="2b4e8129b02d487f-1" source="H8-8fgQMa_ZMKyO4CBSe-21" target="H8-8fgQMa_ZMKyO4CBSe-22" edge="1">
          <mxGeometry relative="1" as="geometry">
            <mxPoint x="684" y="525" as="sourcePoint" />
            <mxPoint x="684" y="690" as="targetPoint" />
            <Array as="points">
              <mxPoint x="605" y="699" />
            </Array>
          </mxGeometry>
        </mxCell>
        <mxCell id="H8-8fgQMa_ZMKyO4CBSe-26" value="&lt;font style=&quot;font-size: 9px;&quot;&gt;Yes&lt;/font&gt;" style="edgeLabel;html=1;align=center;verticalAlign=middle;resizable=0;points=[];fontSize=12;" parent="H8-8fgQMa_ZMKyO4CBSe-24" vertex="1" connectable="0">
          <mxGeometry x="-0.5933" y="-1" relative="1" as="geometry">
            <mxPoint as="offset" />
          </mxGeometry>
        </mxCell>
        <mxCell id="H8-8fgQMa_ZMKyO4CBSe-27" style="edgeStyle=orthogonalEdgeStyle;rounded=0;html=1;labelBackgroundColor=none;startArrow=none;startFill=0;startSize=5;endArrow=classicThin;endFill=1;endSize=5;jettySize=auto;orthogonalLoop=1;strokeWidth=1;fontFamily=Verdana;fontSize=8;" parent="2b4e8129b02d487f-1" source="H8-8fgQMa_ZMKyO4CBSe-21" target="GMltM3ymVXndYzE7rLGL-8" edge="1">
          <mxGeometry relative="1" as="geometry">
            <mxPoint x="530" y="588" as="sourcePoint" />
            <mxPoint x="590" y="588" as="targetPoint" />
            <Array as="points" />
          </mxGeometry>
        </mxCell>
        <mxCell id="H8-8fgQMa_ZMKyO4CBSe-28" value="&lt;font style=&quot;font-size: 9px;&quot;&gt;No&lt;/font&gt;" style="edgeLabel;html=1;align=center;verticalAlign=middle;resizable=0;points=[];fontSize=12;" parent="H8-8fgQMa_ZMKyO4CBSe-27" vertex="1" connectable="0">
          <mxGeometry x="-0.8136" y="3" relative="1" as="geometry">
            <mxPoint x="-9" y="3" as="offset" />
          </mxGeometry>
        </mxCell>
        <mxCell id="H8-8fgQMa_ZMKyO4CBSe-33" style="edgeStyle=orthogonalEdgeStyle;rounded=0;html=1;labelBackgroundColor=none;startArrow=none;startFill=0;startSize=5;endArrow=classicThin;endFill=1;endSize=5;jettySize=auto;orthogonalLoop=1;strokeWidth=1;fontFamily=Verdana;fontSize=8;" parent="2b4e8129b02d487f-1" source="OChGtl6JTXPUs5rAQgMA-92" target="H8-8fgQMa_ZMKyO4CBSe-32" edge="1">
          <mxGeometry relative="1" as="geometry">
            <mxPoint x="759" y="309" as="sourcePoint" />
            <mxPoint x="801" y="168" as="targetPoint" />
            <Array as="points">
              <mxPoint x="740" y="70" />
            </Array>
          </mxGeometry>
        </mxCell>
        <mxCell id="H8-8fgQMa_ZMKyO4CBSe-36" style="edgeStyle=orthogonalEdgeStyle;rounded=0;html=1;labelBackgroundColor=none;startArrow=none;startFill=0;startSize=5;endArrow=classicThin;endFill=1;endSize=5;jettySize=auto;orthogonalLoop=1;strokeWidth=1;fontFamily=Verdana;fontSize=8;dashed=1;" parent="2b4e8129b02d487f-1" source="H8-8fgQMa_ZMKyO4CBSe-31" target="OChGtl6JTXPUs5rAQgMA-84" edge="1">
          <mxGeometry relative="1" as="geometry">
            <mxPoint x="871" y="455" as="sourcePoint" />
            <mxPoint x="950" y="288" as="targetPoint" />
            <Array as="points">
              <mxPoint x="805" y="620" />
              <mxPoint x="900" y="620" />
              <mxPoint x="900" y="455" />
              <mxPoint x="950" y="455" />
            </Array>
          </mxGeometry>
        </mxCell>
        <mxCell id="H8-8fgQMa_ZMKyO4CBSe-37" style="edgeStyle=orthogonalEdgeStyle;rounded=0;html=1;labelBackgroundColor=none;startArrow=none;startFill=0;startSize=5;endArrow=classicThin;endFill=1;endSize=5;jettySize=auto;orthogonalLoop=1;strokeWidth=1;fontFamily=Verdana;fontSize=8;" parent="2b4e8129b02d487f-1" source="H8-8fgQMa_ZMKyO4CBSe-31" target="OChGtl6JTXPUs5rAQgMA-75" edge="1">
          <mxGeometry relative="1" as="geometry">
            <mxPoint x="480" y="803" as="sourcePoint" />
            <mxPoint x="871" y="180" as="targetPoint" />
            <Array as="points">
              <mxPoint x="880" y="690" />
              <mxPoint x="880" y="170" />
            </Array>
          </mxGeometry>
        </mxCell>
        <mxCell id="H8-8fgQMa_ZMKyO4CBSe-38" style="edgeStyle=orthogonalEdgeStyle;rounded=0;html=1;labelBackgroundColor=none;startArrow=none;startFill=0;startSize=5;endArrow=classicThin;endFill=1;endSize=5;jettySize=auto;orthogonalLoop=1;strokeWidth=1;fontFamily=Verdana;fontSize=8;" parent="2b4e8129b02d487f-1" source="H8-8fgQMa_ZMKyO4CBSe-32" target="-D6VUE0MxRy48ILgnxTh-2" edge="1">
          <mxGeometry relative="1" as="geometry">
            <mxPoint x="871" y="168" as="sourcePoint" />
            <mxPoint x="1045" y="320" as="targetPoint" />
            <Array as="points">
              <mxPoint x="1035" y="70" />
            </Array>
          </mxGeometry>
        </mxCell>
      </root>
    </mxGraphModel>
  </diagram>
  <diagram name="1. Ordering" id="ewW-mLXgtcHNg6mIJWQR">
    <mxGraphModel dx="891" dy="487" grid="1" gridSize="10" guides="1" tooltips="1" connect="1" arrows="1" fold="1" page="1" pageScale="1" pageWidth="1100" pageHeight="850" background="none" math="0" shadow="0">
      <root>
        <mxCell id="LZab7zWppRBkSROAJWzT-0" />
        <mxCell id="LZab7zWppRBkSROAJWzT-1" parent="LZab7zWppRBkSROAJWzT-0" />
        <mxCell id="LZab7zWppRBkSROAJWzT-2" value="1. Ordering" style="swimlane;html=1;childLayout=stackLayout;horizontal=1;startSize=20;horizontalStack=0;rounded=0;shadow=0;labelBackgroundColor=none;strokeWidth=1;fontFamily=Verdana;fontSize=8;align=center;" parent="LZab7zWppRBkSROAJWzT-1" vertex="1">
          <mxGeometry x="10" y="10" width="950" height="670" as="geometry" />
        </mxCell>
        <mxCell id="LZab7zWppRBkSROAJWzT-3" value="Customer" style="swimlane;html=1;startSize=30;horizontal=0;" parent="LZab7zWppRBkSROAJWzT-2" vertex="1">
          <mxGeometry y="20" width="950" height="120" as="geometry" />
        </mxCell>
        <mxCell id="LZab7zWppRBkSROAJWzT-6" value="" style="ellipse;whiteSpace=wrap;html=1;rounded=0;shadow=0;labelBackgroundColor=none;strokeWidth=1;fontFamily=Verdana;fontSize=8;align=center;" parent="LZab7zWppRBkSROAJWzT-3" vertex="1">
          <mxGeometry x="38" y="45" width="30" height="30" as="geometry" />
        </mxCell>
        <mxCell id="oYRssxngDELttuf_LTbj-0" value="Send Order (Excel)" style="rounded=1;whiteSpace=wrap;html=1;shadow=0;labelBackgroundColor=none;strokeWidth=1;fontFamily=Verdana;fontSize=8;align=center;" parent="LZab7zWppRBkSROAJWzT-3" vertex="1">
          <mxGeometry x="150" y="75" width="70" height="37" as="geometry" />
        </mxCell>
        <mxCell id="oYRssxngDELttuf_LTbj-1" style="edgeStyle=orthogonalEdgeStyle;rounded=0;html=1;labelBackgroundColor=none;startArrow=none;startFill=0;startSize=5;endArrow=classicThin;endFill=1;endSize=5;jettySize=auto;orthogonalLoop=1;strokeWidth=1;fontFamily=Verdana;fontSize=8;" parent="LZab7zWppRBkSROAJWzT-3" source="LZab7zWppRBkSROAJWzT-6" target="oYRssxngDELttuf_LTbj-0" edge="1">
          <mxGeometry relative="1" as="geometry">
            <mxPoint x="65" y="85" as="sourcePoint" />
            <mxPoint x="160" y="252" as="targetPoint" />
            <Array as="points">
              <mxPoint x="80" y="60" />
              <mxPoint x="80" y="93" />
            </Array>
          </mxGeometry>
        </mxCell>
        <mxCell id="oYRssxngDELttuf_LTbj-2" value="Send Monthly /Daily Forecast (Excel)" style="rounded=1;whiteSpace=wrap;html=1;shadow=0;labelBackgroundColor=none;strokeWidth=1;fontFamily=Verdana;fontSize=8;align=center;" parent="LZab7zWppRBkSROAJWzT-3" vertex="1">
          <mxGeometry x="100" y="20" width="70" height="37" as="geometry" />
        </mxCell>
        <mxCell id="oYRssxngDELttuf_LTbj-3" style="edgeStyle=orthogonalEdgeStyle;rounded=0;html=1;labelBackgroundColor=none;startArrow=none;startFill=0;startSize=5;endArrow=classicThin;endFill=1;endSize=5;jettySize=auto;orthogonalLoop=1;strokeWidth=1;fontFamily=Verdana;fontSize=8;" parent="LZab7zWppRBkSROAJWzT-3" source="LZab7zWppRBkSROAJWzT-6" target="oYRssxngDELttuf_LTbj-2" edge="1">
          <mxGeometry relative="1" as="geometry">
            <mxPoint x="80" y="70" as="sourcePoint" />
            <mxPoint x="110" y="103" as="targetPoint" />
            <Array as="points">
              <mxPoint x="80" y="60" />
              <mxPoint x="80" y="40" />
            </Array>
          </mxGeometry>
        </mxCell>
        <mxCell id="MlDTjUNmEqRWVWso0yWt-0" value="" style="rounded=1;whiteSpace=wrap;html=1;fontSize=8;fillColor=#e1d5e7;strokeColor=#9673a6;shadow=0;strokeWidth=1;align=center;verticalAlign=middle;fontFamily=Verdana;fontColor=default;labelBackgroundColor=none;" vertex="1" parent="LZab7zWppRBkSROAJWzT-3">
          <mxGeometry x="784" y="20" width="40" height="20" as="geometry" />
        </mxCell>
        <mxCell id="MlDTjUNmEqRWVWso0yWt-1" value="" style="rounded=1;whiteSpace=wrap;html=1;fontSize=8;fillColor=#d80073;strokeColor=#A50040;shadow=0;strokeWidth=1;align=center;verticalAlign=middle;fontFamily=Verdana;fontColor=#ffffff;labelBackgroundColor=none;" vertex="1" parent="LZab7zWppRBkSROAJWzT-3">
          <mxGeometry x="784" y="50" width="40" height="20" as="geometry" />
        </mxCell>
        <mxCell id="MlDTjUNmEqRWVWso0yWt-2" value="" style="rounded=1;whiteSpace=wrap;html=1;fontSize=10;" vertex="1" parent="LZab7zWppRBkSROAJWzT-3">
          <mxGeometry x="784" y="80" width="40" height="20" as="geometry" />
        </mxCell>
        <mxCell id="MlDTjUNmEqRWVWso0yWt-3" value="PASI System (Odoo)" style="text;html=1;strokeColor=none;fillColor=none;align=center;verticalAlign=middle;whiteSpace=wrap;rounded=0;" vertex="1" parent="LZab7zWppRBkSROAJWzT-3">
          <mxGeometry x="824" y="15" width="115.5" height="30" as="geometry" />
        </mxCell>
        <mxCell id="MlDTjUNmEqRWVWso0yWt-4" value="PASI Portal (Odoo)" style="text;html=1;strokeColor=none;fillColor=none;align=center;verticalAlign=middle;whiteSpace=wrap;rounded=0;" vertex="1" parent="LZab7zWppRBkSROAJWzT-3">
          <mxGeometry x="824" y="45" width="110" height="30" as="geometry" />
        </mxCell>
        <mxCell id="MlDTjUNmEqRWVWso0yWt-5" value="Manual / Out of Scope" style="text;html=1;strokeColor=none;fillColor=none;align=center;verticalAlign=middle;whiteSpace=wrap;rounded=0;" vertex="1" parent="LZab7zWppRBkSROAJWzT-3">
          <mxGeometry x="824" y="75" width="127.5" height="30" as="geometry" />
        </mxCell>
        <mxCell id="ID3lGAtNbBix-N0HnKA_-21" style="edgeStyle=orthogonalEdgeStyle;rounded=0;html=1;labelBackgroundColor=none;startArrow=none;startFill=0;startSize=5;endArrow=classicThin;endFill=1;endSize=5;jettySize=auto;orthogonalLoop=1;strokeWidth=1;fontFamily=Verdana;fontSize=8;" parent="LZab7zWppRBkSROAJWzT-2" source="ID3lGAtNbBix-N0HnKA_-20" target="sREEas9JUnIbprGlQSYq-1" edge="1">
          <mxGeometry relative="1" as="geometry">
            <mxPoint x="812" y="624" as="sourcePoint" />
            <mxPoint x="848" y="624" as="targetPoint" />
            <Array as="points" />
          </mxGeometry>
        </mxCell>
        <mxCell id="LZab7zWppRBkSROAJWzT-12" value="PASI Sales &amp;amp; Planning" style="swimlane;html=1;startSize=30;horizontal=0;" parent="LZab7zWppRBkSROAJWzT-2" vertex="1">
          <mxGeometry y="140" width="950" height="310" as="geometry" />
        </mxCell>
        <mxCell id="LZab7zWppRBkSROAJWzT-13" value="Validasi Order" style="rounded=1;whiteSpace=wrap;html=1;shadow=0;labelBackgroundColor=none;strokeWidth=1;fontFamily=Verdana;fontSize=8;align=center;fillColor=#e1d5e7;strokeColor=#9673a6;" parent="LZab7zWppRBkSROAJWzT-12" vertex="1">
          <mxGeometry x="340" y="204.5" width="70" height="37" as="geometry" />
        </mxCell>
        <mxCell id="LZab7zWppRBkSROAJWzT-14" value="Valid" style="strokeWidth=1;html=1;shape=mxgraph.flowchart.decision;whiteSpace=wrap;rounded=1;shadow=0;labelBackgroundColor=none;fontFamily=Verdana;fontSize=8;align=center;" parent="LZab7zWppRBkSROAJWzT-12" vertex="1">
          <mxGeometry x="457" y="207.4999999999999" width="30" height="30" as="geometry" />
        </mxCell>
        <mxCell id="LZab7zWppRBkSROAJWzT-15" style="edgeStyle=orthogonalEdgeStyle;rounded=0;html=1;labelBackgroundColor=none;startArrow=none;startFill=0;startSize=5;endArrow=classicThin;endFill=1;endSize=5;jettySize=auto;orthogonalLoop=1;strokeWidth=1;fontFamily=Verdana;fontSize=8;" parent="LZab7zWppRBkSROAJWzT-12" source="LZab7zWppRBkSROAJWzT-13" target="LZab7zWppRBkSROAJWzT-14" edge="1">
          <mxGeometry relative="1" as="geometry">
            <mxPoint x="529" y="122" as="sourcePoint" />
            <mxPoint x="542" y="185" as="targetPoint" />
            <Array as="points">
              <mxPoint x="375" y="220" />
            </Array>
          </mxGeometry>
        </mxCell>
        <mxCell id="LZab7zWppRBkSROAJWzT-16" value="Generate SO for Affiliate" style="rounded=1;whiteSpace=wrap;html=1;shadow=0;labelBackgroundColor=none;strokeWidth=1;fontFamily=Verdana;fontSize=8;align=center;fillColor=#e1d5e7;strokeColor=#9673a6;" parent="LZab7zWppRBkSROAJWzT-12" vertex="1">
          <mxGeometry x="632" y="169.5" width="70" height="37" as="geometry" />
        </mxCell>
        <mxCell id="LZab7zWppRBkSROAJWzT-17" style="edgeStyle=orthogonalEdgeStyle;rounded=0;html=1;labelBackgroundColor=none;startArrow=none;startFill=0;startSize=5;endArrow=classicThin;endFill=1;endSize=5;jettySize=auto;orthogonalLoop=1;strokeWidth=1;fontFamily=Verdana;fontSize=8;" parent="LZab7zWppRBkSROAJWzT-12" source="oYRssxngDELttuf_LTbj-8" target="LZab7zWppRBkSROAJWzT-16" edge="1">
          <mxGeometry relative="1" as="geometry">
            <mxPoint x="522" y="214" as="sourcePoint" />
            <mxPoint x="562" y="214" as="targetPoint" />
            <Array as="points">
              <mxPoint x="540" y="188" />
            </Array>
          </mxGeometry>
        </mxCell>
        <mxCell id="LZab7zWppRBkSROAJWzT-18" value="Generate PO to Vendor (O.s/Dom.)" style="rounded=1;whiteSpace=wrap;html=1;shadow=0;labelBackgroundColor=none;strokeWidth=1;fontFamily=Verdana;fontSize=8;align=center;fillColor=#e1d5e7;strokeColor=#9673a6;" parent="LZab7zWppRBkSROAJWzT-12" vertex="1">
          <mxGeometry x="632" y="235" width="70" height="37" as="geometry" />
        </mxCell>
        <mxCell id="LZab7zWppRBkSROAJWzT-19" style="edgeStyle=orthogonalEdgeStyle;rounded=0;html=1;labelBackgroundColor=none;startArrow=none;startFill=0;startSize=5;endArrow=classicThin;endFill=1;endSize=5;jettySize=auto;orthogonalLoop=1;strokeWidth=1;fontFamily=Verdana;fontSize=8;" parent="LZab7zWppRBkSROAJWzT-12" source="oYRssxngDELttuf_LTbj-8" target="LZab7zWppRBkSROAJWzT-18" edge="1">
          <mxGeometry relative="1" as="geometry">
            <mxPoint x="555" y="235.49588235294118" as="sourcePoint" />
            <mxPoint x="632" y="266.48411764705884" as="targetPoint" />
            <Array as="points">
              <mxPoint x="540" y="260" />
            </Array>
          </mxGeometry>
        </mxCell>
        <mxCell id="ID3lGAtNbBix-N0HnKA_-4" value="Input Master Product Mapping" style="rounded=1;whiteSpace=wrap;html=1;shadow=0;labelBackgroundColor=none;strokeWidth=1;fontFamily=Verdana;fontSize=8;align=center;strokeColor=#9673a6;verticalAlign=middle;fontColor=default;fillColor=#e1d5e7;" parent="LZab7zWppRBkSROAJWzT-12" vertex="1">
          <mxGeometry x="65" y="179" width="70" height="37" as="geometry" />
        </mxCell>
        <mxCell id="ID3lGAtNbBix-N0HnKA_-5" value="Input Master Product" style="rounded=1;whiteSpace=wrap;html=1;shadow=0;labelBackgroundColor=none;strokeWidth=1;fontFamily=Verdana;fontSize=8;align=center;strokeColor=#9673a6;verticalAlign=middle;fontColor=default;fillColor=#e1d5e7;" parent="LZab7zWppRBkSROAJWzT-12" vertex="1">
          <mxGeometry x="65" y="116" width="70" height="37" as="geometry" />
        </mxCell>
        <mxCell id="ID3lGAtNbBix-N0HnKA_-7" value="Input Master Price" style="rounded=1;whiteSpace=wrap;html=1;shadow=0;labelBackgroundColor=none;strokeWidth=1;fontFamily=Verdana;fontSize=8;align=center;strokeColor=#9673a6;verticalAlign=middle;fontColor=default;fillColor=#e1d5e7;" parent="LZab7zWppRBkSROAJWzT-12" vertex="1">
          <mxGeometry x="65" y="240.5" width="70" height="37" as="geometry" />
        </mxCell>
        <mxCell id="ID3lGAtNbBix-N0HnKA_-13" style="edgeStyle=orthogonalEdgeStyle;rounded=0;html=1;labelBackgroundColor=none;startArrow=none;startFill=0;startSize=5;endArrow=classicThin;endFill=1;endSize=5;jettySize=auto;orthogonalLoop=1;strokeWidth=1;fontFamily=Verdana;fontSize=8;dashed=1;" parent="LZab7zWppRBkSROAJWzT-12" source="ID3lGAtNbBix-N0HnKA_-5" target="LZab7zWppRBkSROAJWzT-13" edge="1">
          <mxGeometry relative="1" as="geometry">
            <mxPoint x="170" y="74" as="sourcePoint" />
            <mxPoint x="442" y="238.5" as="targetPoint" />
            <Array as="points">
              <mxPoint x="210" y="139" />
              <mxPoint x="210" y="210" />
            </Array>
          </mxGeometry>
        </mxCell>
        <mxCell id="ID3lGAtNbBix-N0HnKA_-14" style="edgeStyle=orthogonalEdgeStyle;rounded=0;html=1;labelBackgroundColor=none;startArrow=none;startFill=0;startSize=5;endArrow=classicThin;endFill=1;endSize=5;jettySize=auto;orthogonalLoop=1;strokeWidth=1;fontFamily=Verdana;fontSize=8;dashed=1;" parent="LZab7zWppRBkSROAJWzT-12" target="LZab7zWppRBkSROAJWzT-13" edge="1">
          <mxGeometry relative="1" as="geometry">
            <mxPoint x="135" y="196.9999999999999" as="sourcePoint" />
            <mxPoint x="340" y="206.9999999999999" as="targetPoint" />
            <Array as="points">
              <mxPoint x="200" y="197" />
              <mxPoint x="200" y="220" />
            </Array>
          </mxGeometry>
        </mxCell>
        <mxCell id="ID3lGAtNbBix-N0HnKA_-15" style="edgeStyle=orthogonalEdgeStyle;rounded=0;html=1;labelBackgroundColor=none;startArrow=none;startFill=0;startSize=5;endArrow=classicThin;endFill=1;endSize=5;jettySize=auto;orthogonalLoop=1;strokeWidth=1;fontFamily=Verdana;fontSize=8;dashed=1;" parent="LZab7zWppRBkSROAJWzT-12" target="LZab7zWppRBkSROAJWzT-13" edge="1">
          <mxGeometry relative="1" as="geometry">
            <mxPoint x="135" y="253.9999999999999" as="sourcePoint" />
            <mxPoint x="340.0088495575221" y="212.5" as="targetPoint" />
            <Array as="points">
              <mxPoint x="230" y="254" />
              <mxPoint x="230" y="230" />
            </Array>
          </mxGeometry>
        </mxCell>
        <mxCell id="ID3lGAtNbBix-N0HnKA_-17" value="Issue Monthly Order" style="rounded=1;whiteSpace=wrap;html=1;shadow=0;labelBackgroundColor=none;strokeWidth=1;fontFamily=Verdana;fontSize=8;align=center;fillColor=#e1d5e7;strokeColor=#9673a6;" parent="LZab7zWppRBkSROAJWzT-12" vertex="1">
          <mxGeometry x="341" y="145" width="70" height="37" as="geometry" />
        </mxCell>
        <mxCell id="ID3lGAtNbBix-N0HnKA_-19" style="edgeStyle=orthogonalEdgeStyle;rounded=0;html=1;labelBackgroundColor=none;startArrow=none;startFill=0;startSize=5;endArrow=classicThin;endFill=1;endSize=5;jettySize=auto;orthogonalLoop=1;strokeWidth=1;fontFamily=Verdana;fontSize=8;" parent="LZab7zWppRBkSROAJWzT-12" source="ID3lGAtNbBix-N0HnKA_-17" target="LZab7zWppRBkSROAJWzT-13" edge="1">
          <mxGeometry relative="1" as="geometry">
            <mxPoint x="330" y="8" as="sourcePoint" />
            <mxPoint x="390" y="154" as="targetPoint" />
            <Array as="points">
              <mxPoint x="376" y="200" />
              <mxPoint x="376" y="200" />
            </Array>
          </mxGeometry>
        </mxCell>
        <mxCell id="ID3lGAtNbBix-N0HnKA_-25" value="" style="shape=cylinder3;whiteSpace=wrap;html=1;boundedLbl=1;backgroundOutline=1;size=3.6117782592773438;fillColor=#f5f5f5;fontColor=#333333;strokeColor=#666666;" parent="LZab7zWppRBkSROAJWzT-12" vertex="1">
          <mxGeometry x="124" y="143" width="19" height="20" as="geometry" />
        </mxCell>
        <mxCell id="ID3lGAtNbBix-N0HnKA_-26" value="" style="shape=cylinder3;whiteSpace=wrap;html=1;boundedLbl=1;backgroundOutline=1;size=3.6117782592773438;fillColor=#f5f5f5;fontColor=#333333;strokeColor=#666666;" parent="LZab7zWppRBkSROAJWzT-12" vertex="1">
          <mxGeometry x="121" y="207.5" width="19" height="22.5" as="geometry" />
        </mxCell>
        <mxCell id="ID3lGAtNbBix-N0HnKA_-27" value="" style="shape=cylinder3;whiteSpace=wrap;html=1;boundedLbl=1;backgroundOutline=1;size=3.6117782592773438;fillColor=#f5f5f5;fontColor=#333333;strokeColor=#666666;" parent="LZab7zWppRBkSROAJWzT-12" vertex="1">
          <mxGeometry x="121" y="269" width="19" height="21" as="geometry" />
        </mxCell>
        <mxCell id="oYRssxngDELttuf_LTbj-8" value="" style="verticalLabelPosition=bottom;verticalAlign=top;html=1;shape=mxgraph.flowchart.or;" parent="LZab7zWppRBkSROAJWzT-12" vertex="1">
          <mxGeometry x="525" y="208" width="30" height="29" as="geometry" />
        </mxCell>
        <mxCell id="oYRssxngDELttuf_LTbj-9" style="edgeStyle=orthogonalEdgeStyle;rounded=0;html=1;labelBackgroundColor=none;startArrow=none;startFill=0;startSize=5;endArrow=classicThin;endFill=1;endSize=5;jettySize=auto;orthogonalLoop=1;strokeWidth=1;fontFamily=Verdana;fontSize=8;" parent="LZab7zWppRBkSROAJWzT-12" source="LZab7zWppRBkSROAJWzT-14" target="oYRssxngDELttuf_LTbj-8" edge="1">
          <mxGeometry relative="1" as="geometry">
            <mxPoint x="520" y="220" as="sourcePoint" />
            <mxPoint x="642" y="198" as="targetPoint" />
            <Array as="points">
              <mxPoint x="550" y="222" />
              <mxPoint x="550" y="222" />
            </Array>
          </mxGeometry>
        </mxCell>
        <mxCell id="oYRssxngDELttuf_LTbj-16" value="&lt;font style=&quot;font-size: 9px;&quot;&gt;Yes&lt;/font&gt;" style="edgeLabel;html=1;align=center;verticalAlign=middle;resizable=0;points=[];fontSize=12;" parent="oYRssxngDELttuf_LTbj-9" vertex="1" connectable="0">
          <mxGeometry x="-0.5793" y="2" relative="1" as="geometry">
            <mxPoint x="5" y="2" as="offset" />
          </mxGeometry>
        </mxCell>
        <mxCell id="oYRssxngDELttuf_LTbj-10" value="Upload Order" style="rounded=1;whiteSpace=wrap;html=1;shadow=0;labelBackgroundColor=none;strokeWidth=1;fontFamily=Verdana;fontSize=8;align=center;fillColor=#e1d5e7;strokeColor=#9673a6;" parent="LZab7zWppRBkSROAJWzT-12" vertex="1">
          <mxGeometry x="240" y="86" width="70" height="37" as="geometry" />
        </mxCell>
        <mxCell id="oYRssxngDELttuf_LTbj-11" style="edgeStyle=orthogonalEdgeStyle;rounded=0;html=1;labelBackgroundColor=none;startArrow=none;startFill=0;startSize=5;endArrow=classicThin;endFill=1;endSize=5;jettySize=auto;orthogonalLoop=1;strokeWidth=1;fontFamily=Verdana;fontSize=8;" parent="LZab7zWppRBkSROAJWzT-12" source="oYRssxngDELttuf_LTbj-10" target="ID3lGAtNbBix-N0HnKA_-17" edge="1">
          <mxGeometry relative="1" as="geometry">
            <mxPoint x="285" y="150" as="sourcePoint" />
            <mxPoint x="275" y="110" as="targetPoint" />
            <Array as="points">
              <mxPoint x="275" y="164" />
            </Array>
          </mxGeometry>
        </mxCell>
        <mxCell id="oYRssxngDELttuf_LTbj-18" value="" style="shape=cylinder3;whiteSpace=wrap;html=1;boundedLbl=1;backgroundOutline=1;size=3.6117782592773438;fillColor=#f5f5f5;fontColor=#333333;strokeColor=#666666;" parent="LZab7zWppRBkSROAJWzT-12" vertex="1">
          <mxGeometry x="694" y="261" width="19" height="24.5" as="geometry" />
        </mxCell>
        <mxCell id="oYRssxngDELttuf_LTbj-19" value="" style="shape=cylinder3;whiteSpace=wrap;html=1;boundedLbl=1;backgroundOutline=1;size=3.6117782592773438;fillColor=#f5f5f5;fontColor=#333333;strokeColor=#666666;" parent="LZab7zWppRBkSROAJWzT-12" vertex="1">
          <mxGeometry x="694" y="193.5" width="19" height="24.5" as="geometry" />
        </mxCell>
        <mxCell id="X7Nt7BL2RAUE990ybtMW-0" value="&lt;b&gt;4&lt;/b&gt;" style="ellipse;whiteSpace=wrap;html=1;aspect=fixed;fillColor=#e3c800;fontColor=#000000;strokeColor=#B09500;" parent="LZab7zWppRBkSROAJWzT-12" vertex="1">
          <mxGeometry x="830" y="171" width="33.5" height="33.5" as="geometry" />
        </mxCell>
        <mxCell id="X7Nt7BL2RAUE990ybtMW-1" style="edgeStyle=orthogonalEdgeStyle;rounded=0;html=1;labelBackgroundColor=none;startArrow=none;startFill=0;startSize=5;endArrow=classicThin;endFill=1;endSize=5;jettySize=auto;orthogonalLoop=1;strokeWidth=1;fontFamily=Verdana;fontSize=8;" parent="LZab7zWppRBkSROAJWzT-12" source="LZab7zWppRBkSROAJWzT-16" target="X7Nt7BL2RAUE990ybtMW-0" edge="1">
          <mxGeometry relative="1" as="geometry">
            <mxPoint x="565" y="232" as="sourcePoint" />
            <mxPoint x="642" y="198" as="targetPoint" />
            <Array as="points">
              <mxPoint x="790" y="188" />
              <mxPoint x="790" y="188" />
            </Array>
          </mxGeometry>
        </mxCell>
        <mxCell id="WdpQ2Ug37O4SjQuE05NX-0" value="" style="shape=cylinder3;whiteSpace=wrap;html=1;boundedLbl=1;backgroundOutline=1;size=3.6117782592773438;fillColor=#f5f5f5;fontColor=#333333;strokeColor=#666666;" parent="LZab7zWppRBkSROAJWzT-12" vertex="1">
          <mxGeometry x="400" y="171" width="19" height="22.25" as="geometry" />
        </mxCell>
        <mxCell id="WdpQ2Ug37O4SjQuE05NX-1" value="Upload Forecast" style="rounded=1;whiteSpace=wrap;html=1;shadow=0;labelBackgroundColor=none;strokeWidth=1;fontFamily=Verdana;fontSize=8;align=center;fillColor=#e1d5e7;strokeColor=#9673a6;" parent="LZab7zWppRBkSROAJWzT-12" vertex="1">
          <mxGeometry x="525" y="22" width="70" height="37" as="geometry" />
        </mxCell>
        <mxCell id="MlDTjUNmEqRWVWso0yWt-6" value="Monthly Qty Calculation" style="rounded=1;whiteSpace=wrap;html=1;shadow=0;labelBackgroundColor=none;strokeWidth=1;fontFamily=Verdana;fontSize=8;align=center;fillColor=#e1d5e7;strokeColor=#9673a6;" vertex="1" parent="LZab7zWppRBkSROAJWzT-12">
          <mxGeometry x="632" y="22" width="70" height="37" as="geometry" />
        </mxCell>
        <mxCell id="MlDTjUNmEqRWVWso0yWt-7" style="edgeStyle=orthogonalEdgeStyle;rounded=0;html=1;labelBackgroundColor=none;startArrow=none;startFill=0;startSize=5;endArrow=classicThin;endFill=1;endSize=5;jettySize=auto;orthogonalLoop=1;strokeWidth=1;fontFamily=Verdana;fontSize=8;" edge="1" parent="LZab7zWppRBkSROAJWzT-12" source="WdpQ2Ug37O4SjQuE05NX-1" target="MlDTjUNmEqRWVWso0yWt-6">
          <mxGeometry relative="1" as="geometry">
            <mxPoint x="712" y="198" as="sourcePoint" />
            <mxPoint x="840" y="198" as="targetPoint" />
            <Array as="points">
              <mxPoint x="610" y="40" />
              <mxPoint x="610" y="40" />
            </Array>
          </mxGeometry>
        </mxCell>
        <mxCell id="MlDTjUNmEqRWVWso0yWt-8" value="" style="shape=cylinder3;whiteSpace=wrap;html=1;boundedLbl=1;backgroundOutline=1;size=3.6117782592773438;fillColor=#f5f5f5;fontColor=#333333;strokeColor=#666666;" vertex="1" parent="LZab7zWppRBkSROAJWzT-12">
          <mxGeometry x="694" y="51.75" width="19" height="22.25" as="geometry" />
        </mxCell>
        <mxCell id="MlDTjUNmEqRWVWso0yWt-9" style="edgeStyle=orthogonalEdgeStyle;rounded=0;html=1;labelBackgroundColor=none;startArrow=none;startFill=0;startSize=5;endArrow=classicThin;endFill=1;endSize=5;jettySize=auto;orthogonalLoop=1;strokeWidth=1;fontFamily=Verdana;fontSize=8;" edge="1" parent="LZab7zWppRBkSROAJWzT-12" source="MlDTjUNmEqRWVWso0yWt-6" target="ID3lGAtNbBix-N0HnKA_-17">
          <mxGeometry relative="1" as="geometry">
            <mxPoint x="605" y="50" as="sourcePoint" />
            <mxPoint x="642" y="50" as="targetPoint" />
            <Array as="points">
              <mxPoint x="667" y="120" />
              <mxPoint x="376" y="120" />
            </Array>
          </mxGeometry>
        </mxCell>
        <mxCell id="LZab7zWppRBkSROAJWzT-41" value="PASI&lt;div&gt;Procurement&lt;/div&gt;" style="swimlane;html=1;startSize=30;horizontal=0;" parent="LZab7zWppRBkSROAJWzT-2" vertex="1">
          <mxGeometry y="450" width="950" height="110" as="geometry" />
        </mxCell>
        <mxCell id="ID3lGAtNbBix-N0HnKA_-20" value="Approval PO" style="rounded=1;whiteSpace=wrap;html=1;shadow=0;labelBackgroundColor=none;strokeWidth=1;fontFamily=Verdana;fontSize=8;align=center;strokeColor=#9673a6;verticalAlign=middle;fontColor=default;fillColor=#e1d5e7;" parent="LZab7zWppRBkSROAJWzT-41" vertex="1">
          <mxGeometry x="732" y="48" width="70" height="37" as="geometry" />
        </mxCell>
        <mxCell id="LZab7zWppRBkSROAJWzT-20" value="Send PO to Affiliate" style="rounded=1;whiteSpace=wrap;html=1;shadow=0;labelBackgroundColor=none;strokeWidth=1;fontFamily=Verdana;fontSize=8;align=center;fillColor=#e1d5e7;strokeColor=#9673a6;" parent="LZab7zWppRBkSROAJWzT-41" vertex="1">
          <mxGeometry x="631" y="48" width="70" height="37" as="geometry" />
        </mxCell>
        <mxCell id="ID3lGAtNbBix-N0HnKA_-2" style="edgeStyle=orthogonalEdgeStyle;rounded=0;html=1;labelBackgroundColor=none;startArrow=none;startFill=0;startSize=5;endArrow=classicThin;endFill=1;endSize=5;jettySize=auto;orthogonalLoop=1;strokeWidth=1;fontFamily=Verdana;fontSize=8;" parent="LZab7zWppRBkSROAJWzT-41" source="LZab7zWppRBkSROAJWzT-20" target="ID3lGAtNbBix-N0HnKA_-20" edge="1">
          <mxGeometry relative="1" as="geometry">
            <mxPoint x="718" y="53.98000000000002" as="sourcePoint" />
            <mxPoint x="748" y="53.98000000000002" as="targetPoint" />
            <Array as="points" />
          </mxGeometry>
        </mxCell>
        <mxCell id="ID3lGAtNbBix-N0HnKA_-1" value="&lt;font style=&quot;font-size: 9px;&quot;&gt;PO&lt;/font&gt;" style="shape=document;whiteSpace=wrap;html=1;boundedLbl=1;fillColor=#f8cecc;strokeColor=#b85450;" parent="LZab7zWppRBkSROAJWzT-41" vertex="1">
          <mxGeometry x="790" y="73" width="20" height="21" as="geometry" />
        </mxCell>
        <mxCell id="sREEas9JUnIbprGlQSYq-0" value="Affiliate" style="swimlane;html=1;startSize=30;horizontal=0;" parent="LZab7zWppRBkSROAJWzT-2" vertex="1">
          <mxGeometry y="560" width="950" height="110" as="geometry" />
        </mxCell>
        <mxCell id="sREEas9JUnIbprGlQSYq-1" value="Approved By Affiliate" style="rounded=1;whiteSpace=wrap;html=1;shadow=0;labelBackgroundColor=none;strokeWidth=1;fontFamily=Verdana;fontSize=8;align=center;fillColor=#d80073;fontColor=#ffffff;strokeColor=#A50040;" parent="sREEas9JUnIbprGlQSYq-0" vertex="1">
          <mxGeometry x="732" y="30" width="70" height="37" as="geometry" />
        </mxCell>
        <mxCell id="oYRssxngDELttuf_LTbj-25" value="" style="shape=cylinder3;whiteSpace=wrap;html=1;boundedLbl=1;backgroundOutline=1;size=3.6117782592773438;fillColor=#f5f5f5;fontColor=#333333;strokeColor=#666666;" parent="sREEas9JUnIbprGlQSYq-0" vertex="1">
          <mxGeometry x="791" y="60" width="19" height="24.5" as="geometry" />
        </mxCell>
        <mxCell id="UTH8YmUQ4E25_No0iKiN-0" value="&lt;b&gt;2&lt;/b&gt;" style="ellipse;whiteSpace=wrap;html=1;aspect=fixed;fillColor=#e3c800;fontColor=#000000;strokeColor=#B09500;" parent="sREEas9JUnIbprGlQSYq-0" vertex="1">
          <mxGeometry x="850" y="31.75" width="33.5" height="33.5" as="geometry" />
        </mxCell>
        <mxCell id="UTH8YmUQ4E25_No0iKiN-1" style="edgeStyle=orthogonalEdgeStyle;rounded=0;html=1;labelBackgroundColor=none;startArrow=none;startFill=0;startSize=5;endArrow=classicThin;endFill=1;endSize=5;jettySize=auto;orthogonalLoop=1;strokeWidth=1;fontFamily=Verdana;fontSize=8;" parent="sREEas9JUnIbprGlQSYq-0" source="sREEas9JUnIbprGlQSYq-1" target="UTH8YmUQ4E25_No0iKiN-0" edge="1">
          <mxGeometry relative="1" as="geometry">
            <mxPoint x="777" y="-45" as="sourcePoint" />
            <mxPoint x="777" y="40" as="targetPoint" />
            <Array as="points" />
          </mxGeometry>
        </mxCell>
        <mxCell id="oYRssxngDELttuf_LTbj-4" style="edgeStyle=orthogonalEdgeStyle;rounded=0;html=1;labelBackgroundColor=none;startArrow=none;startFill=0;startSize=5;endArrow=classicThin;endFill=1;endSize=5;jettySize=auto;orthogonalLoop=1;strokeWidth=1;fontFamily=Verdana;fontSize=8;" parent="LZab7zWppRBkSROAJWzT-2" source="oYRssxngDELttuf_LTbj-0" target="oYRssxngDELttuf_LTbj-10" edge="1">
          <mxGeometry relative="1" as="geometry">
            <mxPoint x="195" y="297" as="sourcePoint" />
            <mxPoint x="300" y="415" as="targetPoint" />
            <Array as="points">
              <mxPoint x="275" y="120" />
            </Array>
          </mxGeometry>
        </mxCell>
        <mxCell id="LZab7zWppRBkSROAJWzT-21" style="edgeStyle=orthogonalEdgeStyle;rounded=0;html=1;labelBackgroundColor=none;startArrow=none;startFill=0;startSize=5;endArrow=classicThin;endFill=1;endSize=5;jettySize=auto;orthogonalLoop=1;strokeWidth=1;fontFamily=Verdana;fontSize=8;" parent="LZab7zWppRBkSROAJWzT-2" source="LZab7zWppRBkSROAJWzT-18" target="LZab7zWppRBkSROAJWzT-20" edge="1">
          <mxGeometry relative="1" as="geometry">
            <mxPoint x="591" y="512" as="sourcePoint" />
            <mxPoint x="642" y="545" as="targetPoint" />
            <Array as="points">
              <mxPoint x="667" y="480" />
              <mxPoint x="667" y="480" />
            </Array>
          </mxGeometry>
        </mxCell>
        <mxCell id="WdpQ2Ug37O4SjQuE05NX-2" style="edgeStyle=orthogonalEdgeStyle;rounded=0;html=1;labelBackgroundColor=none;startArrow=none;startFill=0;startSize=5;endArrow=classicThin;endFill=1;endSize=5;jettySize=auto;orthogonalLoop=1;strokeWidth=1;fontFamily=Verdana;fontSize=8;" parent="LZab7zWppRBkSROAJWzT-2" source="oYRssxngDELttuf_LTbj-2" target="WdpQ2Ug37O4SjQuE05NX-1" edge="1">
          <mxGeometry relative="1" as="geometry">
            <mxPoint x="80" y="90" as="sourcePoint" />
            <mxPoint x="160" y="123" as="targetPoint" />
            <Array as="points">
              <mxPoint x="560" y="60" />
            </Array>
          </mxGeometry>
        </mxCell>
        <mxCell id="oYRssxngDELttuf_LTbj-14" style="edgeStyle=orthogonalEdgeStyle;rounded=0;html=1;labelBackgroundColor=none;startArrow=none;startFill=0;startSize=5;endArrow=classicThin;endFill=1;endSize=5;jettySize=auto;orthogonalLoop=1;strokeWidth=1;fontFamily=Verdana;fontSize=8;" parent="LZab7zWppRBkSROAJWzT-2" source="LZab7zWppRBkSROAJWzT-14" target="oYRssxngDELttuf_LTbj-0" edge="1">
          <mxGeometry relative="1" as="geometry">
            <mxPoint x="497" y="372" as="sourcePoint" />
            <mxPoint x="472" y="226" as="targetPoint" />
            <Array as="points">
              <mxPoint x="472" y="114" />
            </Array>
          </mxGeometry>
        </mxCell>
        <mxCell id="oYRssxngDELttuf_LTbj-15" value="&lt;font style=&quot;font-size: 9px;&quot;&gt;No&lt;/font&gt;" style="edgeLabel;html=1;align=center;verticalAlign=middle;resizable=0;points=[];fontSize=12;" parent="oYRssxngDELttuf_LTbj-14" vertex="1" connectable="0">
          <mxGeometry x="-0.5535" y="-2" relative="1" as="geometry">
            <mxPoint x="-2" y="1" as="offset" />
          </mxGeometry>
        </mxCell>
      </root>
    </mxGraphModel>
  </diagram>
  <diagram name="2. Receiving" id="qrAKqGUqpGENbbrTRkKW">
    <mxGraphModel dx="1238" dy="677" grid="1" gridSize="10" guides="1" tooltips="1" connect="1" arrows="1" fold="1" page="1" pageScale="1" pageWidth="1100" pageHeight="850" background="none" math="0" shadow="0">
      <root>
        <mxCell id="4leRcj-vgABzX0mRtRA_-0" />
        <mxCell id="4leRcj-vgABzX0mRtRA_-1" parent="4leRcj-vgABzX0mRtRA_-0" />
        <mxCell id="4leRcj-vgABzX0mRtRA_-2" value="2. Receiving" style="swimlane;html=1;childLayout=stackLayout;horizontal=1;startSize=20;horizontalStack=0;rounded=0;shadow=0;labelBackgroundColor=none;strokeWidth=1;fontFamily=Verdana;fontSize=8;align=center;" parent="4leRcj-vgABzX0mRtRA_-1" vertex="1">
          <mxGeometry x="12" y="13" width="1070" height="670" as="geometry" />
        </mxCell>
        <mxCell id="4leRcj-vgABzX0mRtRA_-11" value="PASI&lt;div&gt;Procurement&lt;/div&gt;" style="swimlane;html=1;startSize=30;horizontal=0;" parent="4leRcj-vgABzX0mRtRA_-2" vertex="1">
          <mxGeometry y="20" width="1070" height="130" as="geometry" />
        </mxCell>
        <mxCell id="4leRcj-vgABzX0mRtRA_-21" value="Send Order Report to Vendor" style="rounded=1;whiteSpace=wrap;html=1;shadow=0;labelBackgroundColor=none;strokeWidth=1;fontFamily=Verdana;fontSize=8;align=center;fillColor=#e1d5e7;strokeColor=#9673a6;" parent="4leRcj-vgABzX0mRtRA_-11" vertex="1">
          <mxGeometry x="498" y="30" width="70" height="37" as="geometry" />
        </mxCell>
        <mxCell id="4leRcj-vgABzX0mRtRA_-27" value="&lt;font style=&quot;font-size: 7px;&quot;&gt;GR Report&lt;/font&gt;" style="shape=document;whiteSpace=wrap;html=1;boundedLbl=1;fillColor=#d5e8d4;strokeColor=#82b366;" parent="4leRcj-vgABzX0mRtRA_-11" vertex="1">
          <mxGeometry x="558" y="58" width="40" height="22" as="geometry" />
        </mxCell>
        <mxCell id="4leRcj-vgABzX0mRtRA_-28" value="&lt;font style=&quot;font-size: 9px;&quot;&gt;O/s DO&lt;/font&gt;" style="shape=document;whiteSpace=wrap;html=1;boundedLbl=1;fillColor=#d5e8d4;strokeColor=#82b366;" parent="4leRcj-vgABzX0mRtRA_-11" vertex="1">
          <mxGeometry x="568" y="74" width="40" height="22" as="geometry" />
        </mxCell>
        <mxCell id="4leRcj-vgABzX0mRtRA_-29" value="&lt;font style=&quot;font-size: 9px;&quot;&gt;Invoice&lt;/font&gt;" style="shape=document;whiteSpace=wrap;html=1;boundedLbl=1;fillColor=#d5e8d4;strokeColor=#82b366;" parent="4leRcj-vgABzX0mRtRA_-11" vertex="1">
          <mxGeometry x="578" y="89.5" width="40" height="22" as="geometry" />
        </mxCell>
        <mxCell id="4leRcj-vgABzX0mRtRA_-5" value="&lt;b&gt;1&lt;/b&gt;" style="ellipse;whiteSpace=wrap;html=1;rounded=0;shadow=0;labelBackgroundColor=none;strokeWidth=1;fontFamily=Verdana;fontSize=8;align=center;fillColor=#e3c800;fontColor=#000000;strokeColor=#B09500;" parent="4leRcj-vgABzX0mRtRA_-11" vertex="1">
          <mxGeometry x="50" y="28" width="30" height="30" as="geometry" />
        </mxCell>
        <mxCell id="3f_AJbkVURgbOAEz9HHN-8" value="&lt;b&gt;4&lt;/b&gt;" style="ellipse;whiteSpace=wrap;html=1;rounded=0;shadow=0;labelBackgroundColor=none;strokeWidth=1;fontFamily=Verdana;fontSize=8;align=center;fillColor=#e3c800;fontColor=#000000;strokeColor=#B09500;" parent="4leRcj-vgABzX0mRtRA_-11" vertex="1">
          <mxGeometry x="1008" y="74" width="30" height="30" as="geometry" />
        </mxCell>
        <mxCell id="4leRcj-vgABzX0mRtRA_-52" style="edgeStyle=orthogonalEdgeStyle;rounded=0;html=1;labelBackgroundColor=none;startArrow=none;startFill=0;startSize=5;endArrow=classicThin;endFill=1;endSize=5;jettySize=auto;orthogonalLoop=1;strokeWidth=1;fontFamily=Verdana;fontSize=8;" parent="4leRcj-vgABzX0mRtRA_-2" source="4leRcj-vgABzX0mRtRA_-5" target="4leRcj-vgABzX0mRtRA_-50" edge="1">
          <mxGeometry relative="1" as="geometry">
            <mxPoint x="365" y="439" as="sourcePoint" />
            <mxPoint x="110.030303030303" y="870" as="targetPoint" />
            <Array as="points">
              <mxPoint x="65" y="220" />
            </Array>
          </mxGeometry>
        </mxCell>
        <mxCell id="4leRcj-vgABzX0mRtRA_-60" style="edgeStyle=orthogonalEdgeStyle;rounded=0;html=1;labelBackgroundColor=none;startArrow=none;startFill=0;startSize=5;endArrow=classicThin;endFill=1;endSize=5;jettySize=auto;orthogonalLoop=1;strokeWidth=1;fontFamily=Verdana;fontSize=8;" parent="4leRcj-vgABzX0mRtRA_-2" source="4leRcj-vgABzX0mRtRA_-21" target="4leRcj-vgABzX0mRtRA_-46" edge="1">
          <mxGeometry relative="1" as="geometry">
            <mxPoint x="498" y="774" as="sourcePoint" />
            <mxPoint x="823" y="850.0000000000002" as="targetPoint" />
            <Array as="points">
              <mxPoint x="926" y="69" />
            </Array>
          </mxGeometry>
        </mxCell>
        <mxCell id="4leRcj-vgABzX0mRtRA_-41" value="Affiliate" style="swimlane;html=1;startSize=30;horizontal=0;" parent="4leRcj-vgABzX0mRtRA_-2" vertex="1">
          <mxGeometry y="150" width="1070" height="150" as="geometry" />
        </mxCell>
        <mxCell id="4leRcj-vgABzX0mRtRA_-43" value="Delivery" style="rounded=1;whiteSpace=wrap;html=1;shadow=0;labelBackgroundColor=none;strokeWidth=1;fontFamily=Verdana;fontSize=8;align=center;" parent="4leRcj-vgABzX0mRtRA_-41" vertex="1">
          <mxGeometry x="177" y="52" width="70" height="37" as="geometry" />
        </mxCell>
        <mxCell id="4leRcj-vgABzX0mRtRA_-44" style="edgeStyle=orthogonalEdgeStyle;rounded=0;html=1;labelBackgroundColor=none;startArrow=none;startFill=0;startSize=5;endArrow=classicThin;endFill=1;endSize=5;jettySize=auto;orthogonalLoop=1;strokeWidth=1;fontFamily=Verdana;fontSize=8;" parent="4leRcj-vgABzX0mRtRA_-41" source="4leRcj-vgABzX0mRtRA_-50" target="4leRcj-vgABzX0mRtRA_-43" edge="1">
          <mxGeometry relative="1" as="geometry">
            <mxPoint x="147" y="69" as="sourcePoint" />
            <mxPoint x="228" y="69" as="targetPoint" />
            <Array as="points">
              <mxPoint x="190" y="70" />
              <mxPoint x="190" y="70" />
            </Array>
          </mxGeometry>
        </mxCell>
        <mxCell id="4leRcj-vgABzX0mRtRA_-46" value="Has Remaining Delivery?" style="strokeWidth=1;html=1;shape=mxgraph.flowchart.decision;whiteSpace=wrap;rounded=1;shadow=0;labelBackgroundColor=none;fontFamily=Verdana;fontSize=8;align=center;" parent="4leRcj-vgABzX0mRtRA_-41" vertex="1">
          <mxGeometry x="886" y="44.5" width="80" height="74" as="geometry" />
        </mxCell>
        <mxCell id="4leRcj-vgABzX0mRtRA_-50" value="Input DO" style="rounded=1;whiteSpace=wrap;html=1;shadow=0;labelBackgroundColor=none;strokeWidth=1;fontFamily=Verdana;fontSize=8;align=center;strokeColor=#9673a6;verticalAlign=middle;fontColor=default;fillColor=#e1d5e7;" parent="4leRcj-vgABzX0mRtRA_-41" vertex="1">
          <mxGeometry x="77" y="51" width="70" height="37" as="geometry" />
        </mxCell>
        <mxCell id="hAY4MyngA7GWmstpfoYr-0" value="" style="shape=cylinder3;whiteSpace=wrap;html=1;boundedLbl=1;backgroundOutline=1;size=3.6117782592773438;fillColor=#f5f5f5;fontColor=#333333;strokeColor=#666666;" parent="4leRcj-vgABzX0mRtRA_-41" vertex="1">
          <mxGeometry x="133" y="77" width="19" height="22.25" as="geometry" />
        </mxCell>
        <mxCell id="4leRcj-vgABzX0mRtRA_-54" style="edgeStyle=orthogonalEdgeStyle;rounded=0;html=1;labelBackgroundColor=none;startArrow=none;startFill=0;startSize=5;endArrow=classicThin;endFill=1;endSize=5;jettySize=auto;orthogonalLoop=1;strokeWidth=1;fontFamily=Verdana;fontSize=8;" parent="4leRcj-vgABzX0mRtRA_-41" source="4leRcj-vgABzX0mRtRA_-43" target="FHFd0RB__cOG0ArdDacm-1" edge="1">
          <mxGeometry relative="1" as="geometry">
            <mxPoint x="214" y="70.47058823529414" as="sourcePoint" />
            <mxPoint x="278" y="70.47826086956525" as="targetPoint" />
            <Array as="points" />
          </mxGeometry>
        </mxCell>
        <mxCell id="FHFd0RB__cOG0ArdDacm-1" value="Deliver to PASI WH" style="strokeWidth=1;html=1;shape=mxgraph.flowchart.decision;whiteSpace=wrap;rounded=1;shadow=0;labelBackgroundColor=none;fontFamily=Verdana;fontSize=8;align=center;" parent="4leRcj-vgABzX0mRtRA_-41" vertex="1">
          <mxGeometry x="278" y="44.5" width="56" height="52" as="geometry" />
        </mxCell>
        <mxCell id="3f_AJbkVURgbOAEz9HHN-6" style="edgeStyle=orthogonalEdgeStyle;rounded=0;html=1;labelBackgroundColor=none;startArrow=none;startFill=0;startSize=5;endArrow=classicThin;endFill=1;endSize=5;jettySize=auto;orthogonalLoop=1;strokeWidth=1;fontFamily=Verdana;fontSize=8;" parent="4leRcj-vgABzX0mRtRA_-41" source="4leRcj-vgABzX0mRtRA_-46" target="4leRcj-vgABzX0mRtRA_-50" edge="1">
          <mxGeometry relative="1" as="geometry">
            <mxPoint x="506" y="81" as="sourcePoint" />
            <mxPoint x="630" y="-99" as="targetPoint" />
            <Array as="points">
              <mxPoint x="778" y="82" />
              <mxPoint x="778" y="27" />
              <mxPoint x="112" y="27" />
            </Array>
          </mxGeometry>
        </mxCell>
        <mxCell id="muBDDv8pl8BajuJV1epP-6" value="&lt;font style=&quot;font-size: 9px;&quot;&gt;Yes&lt;/font&gt;" style="edgeLabel;html=1;align=center;verticalAlign=middle;resizable=0;points=[];fontSize=12;" parent="3f_AJbkVURgbOAEz9HHN-6" vertex="1" connectable="0">
          <mxGeometry x="-0.8693" y="-2" relative="1" as="geometry">
            <mxPoint as="offset" />
          </mxGeometry>
        </mxCell>
        <mxCell id="4leRcj-vgABzX0mRtRA_-57" style="edgeStyle=orthogonalEdgeStyle;rounded=0;html=1;labelBackgroundColor=none;startArrow=none;startFill=0;startSize=5;endArrow=classicThin;endFill=1;endSize=5;jettySize=auto;orthogonalLoop=1;strokeWidth=1;fontFamily=Verdana;fontSize=8;dashed=1;" parent="4leRcj-vgABzX0mRtRA_-2" source="N3fZzu-jniYo9xQZ0ole-4" target="4leRcj-vgABzX0mRtRA_-21" edge="1">
          <mxGeometry relative="1" as="geometry">
            <mxPoint x="698" y="137" as="sourcePoint" />
            <mxPoint x="463" y="591" as="targetPoint" />
            <Array as="points">
              <mxPoint x="478" y="67" />
            </Array>
          </mxGeometry>
        </mxCell>
        <mxCell id="4leRcj-vgABzX0mRtRA_-53" style="edgeStyle=orthogonalEdgeStyle;rounded=0;html=1;labelBackgroundColor=none;startArrow=none;startFill=0;startSize=5;endArrow=classicThin;endFill=1;endSize=5;jettySize=auto;orthogonalLoop=1;strokeWidth=1;fontFamily=Verdana;fontSize=8;" parent="4leRcj-vgABzX0mRtRA_-2" source="FHFd0RB__cOG0ArdDacm-1" target="4leRcj-vgABzX0mRtRA_-31" edge="1">
          <mxGeometry relative="1" as="geometry">
            <mxPoint x="286" y="720" as="sourcePoint" />
            <mxPoint x="166" y="830" as="targetPoint" />
            <Array as="points">
              <mxPoint x="558" y="221" />
            </Array>
          </mxGeometry>
        </mxCell>
        <mxCell id="3f_AJbkVURgbOAEz9HHN-12" value="&lt;font style=&quot;font-size: 9px;&quot;&gt;Yes&lt;/font&gt;" style="edgeLabel;html=1;align=center;verticalAlign=middle;resizable=0;points=[];fontSize=12;" parent="4leRcj-vgABzX0mRtRA_-53" vertex="1" connectable="0">
          <mxGeometry x="-0.8469" relative="1" as="geometry">
            <mxPoint as="offset" />
          </mxGeometry>
        </mxCell>
        <mxCell id="4leRcj-vgABzX0mRtRA_-55" style="edgeStyle=orthogonalEdgeStyle;rounded=0;html=1;labelBackgroundColor=none;startArrow=none;startFill=0;startSize=5;endArrow=classicThin;endFill=1;endSize=5;jettySize=auto;orthogonalLoop=1;strokeWidth=1;fontFamily=Verdana;fontSize=8;" parent="4leRcj-vgABzX0mRtRA_-2" source="FHFd0RB__cOG0ArdDacm-1" target="4leRcj-vgABzX0mRtRA_-36" edge="1">
          <mxGeometry relative="1" as="geometry">
            <mxPoint x="298" y="737.5" as="sourcePoint" />
            <mxPoint x="368.04347826086973" y="358" as="targetPoint" />
            <Array as="points">
              <mxPoint x="306" y="267" />
              <mxPoint x="368" y="267" />
            </Array>
          </mxGeometry>
        </mxCell>
        <mxCell id="3f_AJbkVURgbOAEz9HHN-13" value="&lt;font style=&quot;font-size: 9px;&quot;&gt;No&lt;/font&gt;" style="edgeLabel;html=1;align=center;verticalAlign=middle;resizable=0;points=[];fontSize=12;" parent="4leRcj-vgABzX0mRtRA_-55" vertex="1" connectable="0">
          <mxGeometry x="-0.6839" relative="1" as="geometry">
            <mxPoint y="1" as="offset" />
          </mxGeometry>
        </mxCell>
        <mxCell id="4leRcj-vgABzX0mRtRA_-67" style="edgeStyle=orthogonalEdgeStyle;rounded=0;html=1;labelBackgroundColor=none;startArrow=none;startFill=0;startSize=5;endArrow=classicThin;endFill=1;endSize=5;jettySize=auto;orthogonalLoop=1;strokeWidth=1;fontFamily=Verdana;fontSize=8;dashed=1;" parent="4leRcj-vgABzX0mRtRA_-2" source="4leRcj-vgABzX0mRtRA_-31" target="4leRcj-vgABzX0mRtRA_-21" edge="1">
          <mxGeometry relative="1" as="geometry">
            <mxPoint x="348" y="107" as="sourcePoint" />
            <mxPoint x="538" y="397" as="targetPoint" />
            <Array as="points">
              <mxPoint x="518" y="356" />
            </Array>
          </mxGeometry>
        </mxCell>
        <mxCell id="4leRcj-vgABzX0mRtRA_-30" value="PASI Warehouse" style="swimlane;html=1;startSize=30;horizontal=0;" parent="4leRcj-vgABzX0mRtRA_-2" vertex="1">
          <mxGeometry y="300" width="1070" height="370" as="geometry" />
        </mxCell>
        <mxCell id="4leRcj-vgABzX0mRtRA_-31" value="&lt;div&gt;Product&lt;/div&gt;&lt;div&gt;Received&lt;/div&gt;" style="rounded=1;whiteSpace=wrap;html=1;shadow=0;labelBackgroundColor=none;strokeWidth=1;fontFamily=Verdana;fontSize=8;align=center;fillColor=#e1d5e7;strokeColor=#9673a6;" parent="4leRcj-vgABzX0mRtRA_-30" vertex="1">
          <mxGeometry x="526" y="37.5" width="70" height="37" as="geometry" />
        </mxCell>
        <mxCell id="4leRcj-vgABzX0mRtRA_-32" value="Move&lt;div&gt;Quarantine&lt;/div&gt;" style="rounded=1;whiteSpace=wrap;html=1;shadow=0;labelBackgroundColor=none;strokeWidth=1;fontFamily=Verdana;fontSize=8;align=center;fillColor=#e1d5e7;strokeColor=#9673a6;" parent="4leRcj-vgABzX0mRtRA_-30" vertex="1">
          <mxGeometry x="646" y="104" width="70" height="37" as="geometry" />
        </mxCell>
        <mxCell id="4leRcj-vgABzX0mRtRA_-36" value="&lt;div&gt;Force Receive DO Vendor&lt;/div&gt;" style="rounded=1;whiteSpace=wrap;html=1;shadow=0;labelBackgroundColor=none;strokeWidth=1;fontFamily=Verdana;fontSize=8;align=center;fillColor=#e1d5e7;strokeColor=#9673a6;" parent="4leRcj-vgABzX0mRtRA_-30" vertex="1">
          <mxGeometry x="334" y="104.5" width="70" height="37" as="geometry" />
        </mxCell>
        <mxCell id="FHFd0RB__cOG0ArdDacm-7" value="&lt;font style=&quot;font-size: 9px;&quot;&gt;GR&lt;/font&gt;" style="shape=cylinder3;whiteSpace=wrap;html=1;boundedLbl=1;backgroundOutline=1;size=3.6117782592773438;fillColor=#f5f5f5;fontColor=#333333;strokeColor=#666666;" parent="4leRcj-vgABzX0mRtRA_-30" vertex="1">
          <mxGeometry x="588" y="64" width="20" height="20" as="geometry" />
        </mxCell>
        <mxCell id="3f_AJbkVURgbOAEz9HHN-3" value="Move to Rack" style="rounded=1;whiteSpace=wrap;html=1;shadow=0;labelBackgroundColor=none;strokeWidth=1;fontFamily=Verdana;fontSize=8;align=center;fillColor=#e1d5e7;strokeColor=#9673a6;" parent="4leRcj-vgABzX0mRtRA_-30" vertex="1">
          <mxGeometry x="768" y="40.5" width="70" height="37" as="geometry" />
        </mxCell>
        <mxCell id="3f_AJbkVURgbOAEz9HHN-4" value="NG" style="strokeWidth=1;html=1;shape=mxgraph.flowchart.decision;whiteSpace=wrap;rounded=1;shadow=0;labelBackgroundColor=none;fontFamily=Verdana;fontSize=8;align=center;" parent="4leRcj-vgABzX0mRtRA_-30" vertex="1">
          <mxGeometry x="658" y="36.5" width="50" height="45" as="geometry" />
        </mxCell>
        <mxCell id="3f_AJbkVURgbOAEz9HHN-9" style="edgeStyle=orthogonalEdgeStyle;rounded=0;html=1;labelBackgroundColor=none;startArrow=none;startFill=0;startSize=5;endArrow=classicThin;endFill=1;endSize=5;jettySize=auto;orthogonalLoop=1;strokeWidth=1;fontFamily=Verdana;fontSize=8;" parent="4leRcj-vgABzX0mRtRA_-30" source="4leRcj-vgABzX0mRtRA_-31" target="3f_AJbkVURgbOAEz9HHN-4" edge="1">
          <mxGeometry relative="1" as="geometry">
            <mxPoint x="418" y="222" as="sourcePoint" />
            <mxPoint x="418" y="83" as="targetPoint" />
            <Array as="points">
              <mxPoint x="618" y="59" />
              <mxPoint x="618" y="59" />
            </Array>
          </mxGeometry>
        </mxCell>
        <mxCell id="3f_AJbkVURgbOAEz9HHN-10" style="edgeStyle=orthogonalEdgeStyle;rounded=0;html=1;labelBackgroundColor=none;startArrow=none;startFill=0;startSize=5;endArrow=classicThin;endFill=1;endSize=5;jettySize=auto;orthogonalLoop=1;strokeWidth=1;fontFamily=Verdana;fontSize=8;" parent="4leRcj-vgABzX0mRtRA_-30" source="3f_AJbkVURgbOAEz9HHN-4" target="3f_AJbkVURgbOAEz9HHN-3" edge="1">
          <mxGeometry relative="1" as="geometry">
            <mxPoint x="698" y="49.360000000000014" as="sourcePoint" />
            <mxPoint x="760" y="49.360000000000014" as="targetPoint" />
            <Array as="points" />
          </mxGeometry>
        </mxCell>
        <mxCell id="3f_AJbkVURgbOAEz9HHN-11" style="edgeStyle=orthogonalEdgeStyle;rounded=0;html=1;labelBackgroundColor=none;startArrow=none;startFill=0;startSize=5;endArrow=classicThin;endFill=1;endSize=5;jettySize=auto;orthogonalLoop=1;strokeWidth=1;fontFamily=Verdana;fontSize=8;" parent="4leRcj-vgABzX0mRtRA_-30" source="3f_AJbkVURgbOAEz9HHN-4" target="4leRcj-vgABzX0mRtRA_-32" edge="1">
          <mxGeometry relative="1" as="geometry">
            <mxPoint x="718" y="69" as="sourcePoint" />
            <mxPoint x="778" y="69" as="targetPoint" />
            <Array as="points">
              <mxPoint x="683" y="123" />
            </Array>
          </mxGeometry>
        </mxCell>
        <mxCell id="3f_AJbkVURgbOAEz9HHN-14" value="Create&lt;div&gt;Return&lt;/div&gt;" style="rounded=1;whiteSpace=wrap;html=1;shadow=0;labelBackgroundColor=none;strokeWidth=1;fontFamily=Verdana;fontSize=8;align=center;fillColor=#e1d5e7;strokeColor=#9673a6;" parent="4leRcj-vgABzX0mRtRA_-30" vertex="1">
          <mxGeometry x="838" y="104" width="70" height="37" as="geometry" />
        </mxCell>
        <mxCell id="3f_AJbkVURgbOAEz9HHN-15" value="" style="shape=cylinder3;whiteSpace=wrap;html=1;boundedLbl=1;backgroundOutline=1;size=3.6117782592773438;fillColor=#f5f5f5;fontColor=#333333;strokeColor=#666666;" parent="4leRcj-vgABzX0mRtRA_-30" vertex="1">
          <mxGeometry x="828" y="69" width="20" height="20" as="geometry" />
        </mxCell>
        <mxCell id="3f_AJbkVURgbOAEz9HHN-16" value="" style="shape=cylinder3;whiteSpace=wrap;html=1;boundedLbl=1;backgroundOutline=1;size=3.6117782592773438;fillColor=#f5f5f5;fontColor=#333333;strokeColor=#666666;" parent="4leRcj-vgABzX0mRtRA_-30" vertex="1">
          <mxGeometry x="708" y="130" width="20" height="20" as="geometry" />
        </mxCell>
        <mxCell id="3f_AJbkVURgbOAEz9HHN-17" value="" style="shape=cylinder3;whiteSpace=wrap;html=1;boundedLbl=1;backgroundOutline=1;size=3.6117782592773438;fillColor=#f5f5f5;fontColor=#333333;strokeColor=#666666;" parent="4leRcj-vgABzX0mRtRA_-30" vertex="1">
          <mxGeometry x="898" y="130" width="20" height="20" as="geometry" />
        </mxCell>
        <mxCell id="3f_AJbkVURgbOAEz9HHN-18" style="edgeStyle=orthogonalEdgeStyle;rounded=0;html=1;labelBackgroundColor=none;startArrow=none;startFill=0;startSize=5;endArrow=classicThin;endFill=1;endSize=5;jettySize=auto;orthogonalLoop=1;strokeWidth=1;fontFamily=Verdana;fontSize=8;" parent="4leRcj-vgABzX0mRtRA_-30" source="4leRcj-vgABzX0mRtRA_-32" target="muBDDv8pl8BajuJV1epP-0" edge="1">
          <mxGeometry relative="1" as="geometry">
            <mxPoint x="693" y="92" as="sourcePoint" />
            <mxPoint x="720" y="133" as="targetPoint" />
            <Array as="points" />
          </mxGeometry>
        </mxCell>
        <mxCell id="3f_AJbkVURgbOAEz9HHN-19" value="&lt;div&gt;Scrap&lt;/div&gt;" style="rounded=1;whiteSpace=wrap;html=1;shadow=0;labelBackgroundColor=none;strokeWidth=1;fontFamily=Verdana;fontSize=8;align=center;fillColor=#e1d5e7;strokeColor=#9673a6;" parent="4leRcj-vgABzX0mRtRA_-30" vertex="1">
          <mxGeometry x="838" y="165" width="70" height="37" as="geometry" />
        </mxCell>
        <mxCell id="3f_AJbkVURgbOAEz9HHN-20" value="" style="shape=cylinder3;whiteSpace=wrap;html=1;boundedLbl=1;backgroundOutline=1;size=3.6117782592773438;fillColor=#f5f5f5;fontColor=#333333;strokeColor=#666666;" parent="4leRcj-vgABzX0mRtRA_-30" vertex="1">
          <mxGeometry x="898" y="190" width="20" height="20" as="geometry" />
        </mxCell>
        <mxCell id="muBDDv8pl8BajuJV1epP-0" value="" style="verticalLabelPosition=bottom;verticalAlign=top;html=1;shape=mxgraph.flowchart.summing_function;" parent="4leRcj-vgABzX0mRtRA_-30" vertex="1">
          <mxGeometry x="758" y="108" width="30" height="30" as="geometry" />
        </mxCell>
        <mxCell id="muBDDv8pl8BajuJV1epP-1" style="edgeStyle=orthogonalEdgeStyle;rounded=0;html=1;labelBackgroundColor=none;startArrow=none;startFill=0;startSize=5;endArrow=classicThin;endFill=1;endSize=5;jettySize=auto;orthogonalLoop=1;strokeWidth=1;fontFamily=Verdana;fontSize=8;" parent="4leRcj-vgABzX0mRtRA_-30" source="muBDDv8pl8BajuJV1epP-0" target="3f_AJbkVURgbOAEz9HHN-14" edge="1">
          <mxGeometry relative="1" as="geometry">
            <mxPoint x="726" y="133" as="sourcePoint" />
            <mxPoint x="768" y="133" as="targetPoint" />
            <Array as="points">
              <mxPoint x="828" y="123" />
              <mxPoint x="828" y="123" />
            </Array>
          </mxGeometry>
        </mxCell>
        <mxCell id="muBDDv8pl8BajuJV1epP-2" style="edgeStyle=orthogonalEdgeStyle;rounded=0;html=1;labelBackgroundColor=none;startArrow=none;startFill=0;startSize=5;endArrow=classicThin;endFill=1;endSize=5;jettySize=auto;orthogonalLoop=1;strokeWidth=1;fontFamily=Verdana;fontSize=8;" parent="4leRcj-vgABzX0mRtRA_-30" source="muBDDv8pl8BajuJV1epP-0" target="3f_AJbkVURgbOAEz9HHN-19" edge="1">
          <mxGeometry relative="1" as="geometry">
            <mxPoint x="798" y="133" as="sourcePoint" />
            <mxPoint x="848" y="133" as="targetPoint" />
            <Array as="points">
              <mxPoint x="773" y="183" />
            </Array>
          </mxGeometry>
        </mxCell>
        <mxCell id="N3fZzu-jniYo9xQZ0ole-0" value="&lt;b&gt;3&lt;/b&gt;" style="ellipse;whiteSpace=wrap;html=1;rounded=0;shadow=0;labelBackgroundColor=none;strokeWidth=1;fontFamily=Verdana;fontSize=8;align=center;fillColor=#e3c800;strokeColor=#B09500;verticalAlign=middle;fontColor=#000000;" parent="4leRcj-vgABzX0mRtRA_-30" vertex="1">
          <mxGeometry x="1008" y="44.5" width="30" height="30" as="geometry" />
        </mxCell>
        <mxCell id="N3fZzu-jniYo9xQZ0ole-1" style="edgeStyle=orthogonalEdgeStyle;rounded=0;html=1;labelBackgroundColor=none;startArrow=none;startFill=0;startSize=5;endArrow=classicThin;endFill=1;endSize=5;jettySize=auto;orthogonalLoop=1;strokeWidth=1;fontFamily=Verdana;fontSize=8;" parent="4leRcj-vgABzX0mRtRA_-30" source="3f_AJbkVURgbOAEz9HHN-3" target="N3fZzu-jniYo9xQZ0ole-0" edge="1">
          <mxGeometry relative="1" as="geometry">
            <mxPoint x="718" y="69" as="sourcePoint" />
            <mxPoint x="778" y="69" as="targetPoint" />
            <Array as="points" />
          </mxGeometry>
        </mxCell>
        <mxCell id="N3fZzu-jniYo9xQZ0ole-2" style="edgeStyle=orthogonalEdgeStyle;rounded=0;html=1;labelBackgroundColor=none;startArrow=none;startFill=0;startSize=5;endArrow=classicThin;endFill=1;endSize=5;jettySize=auto;orthogonalLoop=1;strokeWidth=1;fontFamily=Verdana;fontSize=8;" parent="4leRcj-vgABzX0mRtRA_-30" source="3f_AJbkVURgbOAEz9HHN-14" target="Fk_CcN7lTLx67GL8LKE2-0" edge="1">
          <mxGeometry relative="1" as="geometry">
            <mxPoint x="848" y="69" as="sourcePoint" />
            <mxPoint x="1013" y="105" as="targetPoint" />
            <Array as="points" />
          </mxGeometry>
        </mxCell>
        <mxCell id="N3fZzu-jniYo9xQZ0ole-3" style="edgeStyle=orthogonalEdgeStyle;rounded=0;html=1;labelBackgroundColor=none;startArrow=none;startFill=0;startSize=5;endArrow=classicThin;endFill=1;endSize=5;jettySize=auto;orthogonalLoop=1;strokeWidth=1;fontFamily=Verdana;fontSize=8;" parent="4leRcj-vgABzX0mRtRA_-30" source="3f_AJbkVURgbOAEz9HHN-19" target="Fk_CcN7lTLx67GL8LKE2-0" edge="1">
          <mxGeometry relative="1" as="geometry">
            <mxPoint x="918" y="133" as="sourcePoint" />
            <mxPoint x="998" y="120" as="targetPoint" />
            <Array as="points" />
          </mxGeometry>
        </mxCell>
        <mxCell id="N3fZzu-jniYo9xQZ0ole-4" value="&lt;div&gt;Auto Create&amp;nbsp;&lt;/div&gt;&lt;div&gt;GR&lt;/div&gt;" style="rounded=1;whiteSpace=wrap;html=1;shadow=0;labelBackgroundColor=none;strokeWidth=1;fontFamily=Verdana;fontSize=8;align=center;fillColor=#e1d5e7;strokeColor=#9673a6;" parent="4leRcj-vgABzX0mRtRA_-30" vertex="1">
          <mxGeometry x="446" y="141.5" width="70" height="37" as="geometry" />
        </mxCell>
        <mxCell id="FHFd0RB__cOG0ArdDacm-5" value="&lt;font style=&quot;font-size: 9px;&quot;&gt;GR&lt;/font&gt;" style="shape=cylinder3;whiteSpace=wrap;html=1;boundedLbl=1;backgroundOutline=1;size=3.6117782592773438;fillColor=#f5f5f5;fontColor=#333333;strokeColor=#666666;" parent="4leRcj-vgABzX0mRtRA_-30" vertex="1">
          <mxGeometry x="506" y="170" width="20" height="20" as="geometry" />
        </mxCell>
        <mxCell id="N3fZzu-jniYo9xQZ0ole-10" style="edgeStyle=orthogonalEdgeStyle;rounded=0;html=1;labelBackgroundColor=none;startArrow=none;startFill=0;startSize=5;endArrow=classicThin;endFill=1;endSize=5;jettySize=auto;orthogonalLoop=1;strokeWidth=1;fontFamily=Verdana;fontSize=8;" parent="4leRcj-vgABzX0mRtRA_-30" source="4leRcj-vgABzX0mRtRA_-36" target="N3fZzu-jniYo9xQZ0ole-4" edge="1">
          <mxGeometry relative="1" as="geometry">
            <mxPoint x="225" y="437.5" as="sourcePoint" />
            <mxPoint x="255" y="437.5" as="targetPoint" />
            <Array as="points">
              <mxPoint x="369" y="160" />
            </Array>
          </mxGeometry>
        </mxCell>
        <mxCell id="N3fZzu-jniYo9xQZ0ole-11" value=";" style="edgeStyle=orthogonalEdgeStyle;rounded=0;html=1;labelBackgroundColor=none;startArrow=none;startFill=0;startSize=5;endArrow=classicThin;endFill=1;endSize=5;jettySize=auto;orthogonalLoop=1;strokeWidth=1;fontFamily=Verdana;fontSize=8;" parent="4leRcj-vgABzX0mRtRA_-30" source="N3fZzu-jniYo9xQZ0ole-4" target="N3fZzu-jniYo9xQZ0ole-0" edge="1">
          <mxGeometry relative="1" as="geometry">
            <mxPoint x="848" y="69" as="sourcePoint" />
            <mxPoint x="1013" y="105" as="targetPoint" />
            <Array as="points">
              <mxPoint x="478" y="227" />
              <mxPoint x="1023" y="227" />
            </Array>
          </mxGeometry>
        </mxCell>
        <mxCell id="Fk_CcN7lTLx67GL8LKE2-0" value="" style="ellipse;whiteSpace=wrap;html=1;rounded=0;shadow=0;labelBackgroundColor=none;strokeWidth=1;fontFamily=Verdana;fontSize=8;align=center;fillColor=#000000;strokeColor=#B09500;verticalAlign=middle;fontColor=#000000;" parent="4leRcj-vgABzX0mRtRA_-30" vertex="1">
          <mxGeometry x="968" y="141" width="30" height="30" as="geometry" />
        </mxCell>
        <mxCell id="N-zLHAYcIWoovDbHaj1I-0" value="" style="rounded=1;whiteSpace=wrap;html=1;fontSize=8;fillColor=#e1d5e7;strokeColor=#9673a6;shadow=0;strokeWidth=1;align=center;verticalAlign=middle;fontFamily=Verdana;fontColor=default;labelBackgroundColor=none;" vertex="1" parent="4leRcj-vgABzX0mRtRA_-30">
          <mxGeometry x="858" y="262" width="40" height="20" as="geometry" />
        </mxCell>
        <mxCell id="N-zLHAYcIWoovDbHaj1I-1" value="" style="rounded=1;whiteSpace=wrap;html=1;fontSize=8;fillColor=#d80073;strokeColor=#A50040;shadow=0;strokeWidth=1;align=center;verticalAlign=middle;fontFamily=Verdana;fontColor=#ffffff;labelBackgroundColor=none;" vertex="1" parent="4leRcj-vgABzX0mRtRA_-30">
          <mxGeometry x="858" y="292" width="40" height="20" as="geometry" />
        </mxCell>
        <mxCell id="N-zLHAYcIWoovDbHaj1I-2" value="" style="rounded=1;whiteSpace=wrap;html=1;fontSize=10;" vertex="1" parent="4leRcj-vgABzX0mRtRA_-30">
          <mxGeometry x="858" y="322" width="40" height="20" as="geometry" />
        </mxCell>
        <mxCell id="N-zLHAYcIWoovDbHaj1I-3" value="PASI System (Odoo)" style="text;html=1;strokeColor=none;fillColor=none;align=center;verticalAlign=middle;whiteSpace=wrap;rounded=0;" vertex="1" parent="4leRcj-vgABzX0mRtRA_-30">
          <mxGeometry x="898" y="257" width="115.5" height="30" as="geometry" />
        </mxCell>
        <mxCell id="N-zLHAYcIWoovDbHaj1I-4" value="PASI Portal (Odoo)" style="text;html=1;strokeColor=none;fillColor=none;align=center;verticalAlign=middle;whiteSpace=wrap;rounded=0;" vertex="1" parent="4leRcj-vgABzX0mRtRA_-30">
          <mxGeometry x="898" y="287" width="110" height="30" as="geometry" />
        </mxCell>
        <mxCell id="N-zLHAYcIWoovDbHaj1I-5" value="Manual / Out of Scope" style="text;html=1;strokeColor=none;fillColor=none;align=center;verticalAlign=middle;whiteSpace=wrap;rounded=0;" vertex="1" parent="4leRcj-vgABzX0mRtRA_-30">
          <mxGeometry x="898" y="317" width="127.5" height="30" as="geometry" />
        </mxCell>
        <mxCell id="3f_AJbkVURgbOAEz9HHN-7" style="edgeStyle=orthogonalEdgeStyle;rounded=0;html=1;labelBackgroundColor=none;startArrow=none;startFill=0;startSize=5;endArrow=classicThin;endFill=1;endSize=5;jettySize=auto;orthogonalLoop=1;strokeWidth=1;fontFamily=Verdana;fontSize=8;" parent="4leRcj-vgABzX0mRtRA_-2" source="4leRcj-vgABzX0mRtRA_-46" target="3f_AJbkVURgbOAEz9HHN-8" edge="1">
          <mxGeometry relative="1" as="geometry">
            <mxPoint x="444" y="451" as="sourcePoint" />
            <mxPoint x="1018" y="440" as="targetPoint" />
            <Array as="points">
              <mxPoint x="1008" y="232" />
              <mxPoint x="1008" y="232" />
            </Array>
          </mxGeometry>
        </mxCell>
        <mxCell id="muBDDv8pl8BajuJV1epP-5" value="&lt;font style=&quot;font-size: 9px;&quot;&gt;No&lt;/font&gt;" style="edgeLabel;html=1;align=center;verticalAlign=middle;resizable=0;points=[];fontSize=12;" parent="3f_AJbkVURgbOAEz9HHN-7" vertex="1" connectable="0">
          <mxGeometry x="-0.1509" y="1" relative="1" as="geometry">
            <mxPoint as="offset" />
          </mxGeometry>
        </mxCell>
        <mxCell id="3f_AJbkVURgbOAEz9HHN-2" style="edgeStyle=orthogonalEdgeStyle;rounded=0;html=1;labelBackgroundColor=none;startArrow=none;startFill=0;startSize=5;endArrow=classicThin;endFill=1;endSize=5;jettySize=auto;orthogonalLoop=1;strokeWidth=1;fontFamily=Verdana;fontSize=8;dashed=1;" parent="4leRcj-vgABzX0mRtRA_-2" source="4leRcj-vgABzX0mRtRA_-50" target="4leRcj-vgABzX0mRtRA_-31" edge="1">
          <mxGeometry relative="1" as="geometry">
            <mxPoint x="112.47826086956525" y="381.5" as="sourcePoint" />
            <mxPoint x="122" y="385" as="targetPoint" />
            <Array as="points">
              <mxPoint x="112" y="497" />
              <mxPoint x="558" y="497" />
            </Array>
          </mxGeometry>
        </mxCell>
        <mxCell id="lfBEW3BDoFbw4TsZ1fZe-0" style="edgeStyle=orthogonalEdgeStyle;rounded=0;html=1;labelBackgroundColor=none;startArrow=none;startFill=0;startSize=5;endArrow=classicThin;endFill=1;endSize=5;jettySize=auto;orthogonalLoop=1;strokeWidth=1;fontFamily=Verdana;fontSize=8;dashed=1;" parent="4leRcj-vgABzX0mRtRA_-2" source="4leRcj-vgABzX0mRtRA_-50" target="4leRcj-vgABzX0mRtRA_-36" edge="1">
          <mxGeometry relative="1" as="geometry">
            <mxPoint x="121.9565217391305" y="381.5" as="sourcePoint" />
            <mxPoint x="568" y="384" as="targetPoint" />
            <Array as="points">
              <mxPoint x="122" y="423" />
            </Array>
          </mxGeometry>
        </mxCell>
      </root>
    </mxGraphModel>
  </diagram>
  <diagram name="3. Delivery" id="d6Xk20PynXDtmUrLkWrX">
    <mxGraphModel dx="1485" dy="812" grid="1" gridSize="10" guides="1" tooltips="1" connect="1" arrows="1" fold="1" page="1" pageScale="1" pageWidth="1100" pageHeight="850" background="none" math="0" shadow="0">
      <root>
        <mxCell id="COQ0Ke3TuU1KpEBv3Df9-0" />
        <mxCell id="COQ0Ke3TuU1KpEBv3Df9-1" parent="COQ0Ke3TuU1KpEBv3Df9-0" />
        <mxCell id="COQ0Ke3TuU1KpEBv3Df9-2" value="3&lt;span style=&quot;background-color: initial;&quot;&gt;. Delivery&lt;/span&gt;" style="swimlane;html=1;childLayout=stackLayout;horizontal=1;startSize=20;horizontalStack=0;rounded=0;shadow=0;labelBackgroundColor=none;strokeWidth=1;fontFamily=Verdana;fontSize=8;align=center;" parent="COQ0Ke3TuU1KpEBv3Df9-1" vertex="1">
          <mxGeometry x="10" y="10" width="1050" height="550" as="geometry" />
        </mxCell>
        <mxCell id="COQ0Ke3TuU1KpEBv3Df9-3" value="PASI Warehouse" style="swimlane;html=1;startSize=20;horizontal=0;" parent="COQ0Ke3TuU1KpEBv3Df9-2" vertex="1">
          <mxGeometry y="20" width="1050" height="250" as="geometry" />
        </mxCell>
        <mxCell id="4Yz4ZIBajJbFgQMlm2hf-0" value="&lt;div&gt;Create Delivery to Customer&lt;/div&gt;" style="rounded=1;whiteSpace=wrap;html=1;shadow=0;labelBackgroundColor=none;strokeWidth=1;fontFamily=Verdana;fontSize=8;align=center;fillColor=#e1d5e7;strokeColor=#9673a6;" parent="COQ0Ke3TuU1KpEBv3Df9-3" vertex="1">
          <mxGeometry x="120" y="33.38" width="73" height="37.25" as="geometry" />
        </mxCell>
        <mxCell id="lR34W5HhEzOl6r1_xrOT-0" value="&lt;b&gt;2&lt;/b&gt;" style="ellipse;whiteSpace=wrap;html=1;rounded=0;shadow=0;labelBackgroundColor=none;strokeWidth=1;fontFamily=Verdana;fontSize=8;align=center;fillColor=#e3c800;fontColor=#000000;strokeColor=#B09500;" parent="COQ0Ke3TuU1KpEBv3Df9-3" vertex="1">
          <mxGeometry x="42" y="97" width="30" height="30" as="geometry" />
        </mxCell>
        <mxCell id="7oPuAxOtKphFMyC_Bmg7-0" value="&lt;font style=&quot;font-size: 9px;&quot;&gt;DO&lt;/font&gt;" style="shape=cylinder3;whiteSpace=wrap;html=1;boundedLbl=1;backgroundOutline=1;size=3.6117782592773438;fillColor=#f5f5f5;fontColor=#333333;strokeColor=#666666;" parent="COQ0Ke3TuU1KpEBv3Df9-3" vertex="1">
          <mxGeometry x="180" y="63.379999999999995" width="20" height="20" as="geometry" />
        </mxCell>
        <mxCell id="65xKmr22n_2DazgbsCuG-0" value="&lt;font style=&quot;font-size: 9px;&quot;&gt;SJ&lt;/font&gt;" style="shape=document;whiteSpace=wrap;html=1;boundedLbl=1;fillColor=#f8cecc;strokeColor=#b85450;" parent="COQ0Ke3TuU1KpEBv3Df9-3" vertex="1">
          <mxGeometry x="197" y="75" width="20" height="21" as="geometry" />
        </mxCell>
        <mxCell id="IvhImgOrzTCuUS5XrYTy-0" value="&lt;div&gt;Auto Create DO from Affiliate DO&lt;/div&gt;" style="rounded=1;whiteSpace=wrap;html=1;shadow=0;labelBackgroundColor=none;strokeWidth=1;fontFamily=Verdana;fontSize=8;align=center;fillColor=#e1d5e7;strokeColor=#9673a6;" parent="COQ0Ke3TuU1KpEBv3Df9-3" vertex="1">
          <mxGeometry x="120" y="158" width="73" height="37.25" as="geometry" />
        </mxCell>
        <mxCell id="IvhImgOrzTCuUS5XrYTy-1" value="&lt;font style=&quot;font-size: 9px;&quot;&gt;DO&lt;/font&gt;" style="shape=cylinder3;whiteSpace=wrap;html=1;boundedLbl=1;backgroundOutline=1;size=3.6117782592773438;fillColor=#f5f5f5;fontColor=#333333;strokeColor=#666666;" parent="COQ0Ke3TuU1KpEBv3Df9-3" vertex="1">
          <mxGeometry x="185" y="186" width="20" height="20" as="geometry" />
        </mxCell>
        <mxCell id="PEk56_E92UkK_R9a4uJ--0" value="Send Delivery Confirmation to Customer" style="rounded=1;whiteSpace=wrap;html=1;shadow=0;labelBackgroundColor=none;strokeWidth=1;fontFamily=Verdana;fontSize=8;align=center;" parent="COQ0Ke3TuU1KpEBv3Df9-3" vertex="1">
          <mxGeometry x="266" y="31.51" width="90" height="41.49" as="geometry" />
        </mxCell>
        <mxCell id="PEk56_E92UkK_R9a4uJ--1" value="&lt;div&gt;Create Packing List to Affiliate&lt;/div&gt;" style="rounded=1;whiteSpace=wrap;html=1;shadow=0;labelBackgroundColor=none;strokeWidth=1;fontFamily=Verdana;fontSize=8;align=center;fillColor=#e1d5e7;strokeColor=#9673a6;" parent="COQ0Ke3TuU1KpEBv3Df9-3" vertex="1">
          <mxGeometry x="503" y="33.629999999999995" width="73" height="37.25" as="geometry" />
        </mxCell>
        <mxCell id="EkzwxkjptAOeSFPmfMVf-0" value="&lt;div&gt;Send Global EDI&lt;/div&gt;" style="rounded=1;whiteSpace=wrap;html=1;shadow=0;labelBackgroundColor=none;strokeWidth=1;fontFamily=Verdana;fontSize=8;align=center;" parent="COQ0Ke3TuU1KpEBv3Df9-3" vertex="1">
          <mxGeometry x="645" y="34" width="70" height="37" as="geometry" />
        </mxCell>
        <mxCell id="EkzwxkjptAOeSFPmfMVf-1" value="&lt;font style=&quot;font-size: 9px;&quot;&gt;PL&lt;/font&gt;" style="shape=document;whiteSpace=wrap;html=1;boundedLbl=1;fillColor=#f8cecc;strokeColor=#b85450;" parent="COQ0Ke3TuU1KpEBv3Df9-3" vertex="1">
          <mxGeometry x="574" y="63" width="20" height="21" as="geometry" />
        </mxCell>
        <mxCell id="-Qeye_Q_pdpQpgmVEaxK-0" value="Has Remaining Delivery?" style="strokeWidth=1;html=1;shape=mxgraph.flowchart.decision;whiteSpace=wrap;rounded=1;shadow=0;labelBackgroundColor=none;fontFamily=Verdana;fontSize=8;align=center;" parent="COQ0Ke3TuU1KpEBv3Df9-3" vertex="1">
          <mxGeometry x="800" y="118" width="80" height="74" as="geometry" />
        </mxCell>
        <mxCell id="rMMuMBy2btpEowzyxKWz-0" style="edgeStyle=orthogonalEdgeStyle;rounded=0;html=1;labelBackgroundColor=none;startArrow=none;startFill=0;startSize=5;endArrow=classicThin;endFill=1;endSize=5;jettySize=auto;orthogonalLoop=1;strokeWidth=1;fontFamily=Verdana;fontSize=8;" parent="COQ0Ke3TuU1KpEBv3Df9-3" source="lR34W5HhEzOl6r1_xrOT-0" target="4Yz4ZIBajJbFgQMlm2hf-0" edge="1">
          <mxGeometry relative="1" as="geometry">
            <mxPoint x="100" y="213.27" as="sourcePoint" />
            <mxPoint x="160" y="213.27" as="targetPoint" />
            <Array as="points">
              <mxPoint x="57" y="52" />
            </Array>
          </mxGeometry>
        </mxCell>
        <mxCell id="rMMuMBy2btpEowzyxKWz-1" style="edgeStyle=orthogonalEdgeStyle;rounded=0;html=1;labelBackgroundColor=none;startArrow=none;startFill=0;startSize=5;endArrow=classicThin;endFill=1;endSize=5;jettySize=auto;orthogonalLoop=1;strokeWidth=1;fontFamily=Verdana;fontSize=8;" parent="COQ0Ke3TuU1KpEBv3Df9-3" source="lR34W5HhEzOl6r1_xrOT-0" target="IvhImgOrzTCuUS5XrYTy-0" edge="1">
          <mxGeometry relative="1" as="geometry">
            <mxPoint x="82" y="94" as="sourcePoint" />
            <mxPoint x="130" y="62" as="targetPoint" />
            <Array as="points">
              <mxPoint x="57" y="180" />
            </Array>
          </mxGeometry>
        </mxCell>
        <mxCell id="rMMuMBy2btpEowzyxKWz-2" style="edgeStyle=orthogonalEdgeStyle;rounded=0;html=1;labelBackgroundColor=none;startArrow=none;startFill=0;startSize=5;endArrow=classicThin;endFill=1;endSize=5;jettySize=auto;orthogonalLoop=1;strokeWidth=1;fontFamily=Verdana;fontSize=8;" parent="COQ0Ke3TuU1KpEBv3Df9-3" source="4Yz4ZIBajJbFgQMlm2hf-0" target="PEk56_E92UkK_R9a4uJ--0" edge="1">
          <mxGeometry relative="1" as="geometry">
            <mxPoint x="67" y="115" as="sourcePoint" />
            <mxPoint x="260" y="52.004999999999995" as="targetPoint" />
            <Array as="points" />
          </mxGeometry>
        </mxCell>
        <mxCell id="rMMuMBy2btpEowzyxKWz-3" style="edgeStyle=orthogonalEdgeStyle;rounded=0;html=1;labelBackgroundColor=none;startArrow=none;startFill=0;startSize=5;endArrow=classicThin;endFill=1;endSize=5;jettySize=auto;orthogonalLoop=1;strokeWidth=1;fontFamily=Verdana;fontSize=8;" parent="COQ0Ke3TuU1KpEBv3Df9-3" source="PEk56_E92UkK_R9a4uJ--0" target="PEk56_E92UkK_R9a4uJ--1" edge="1">
          <mxGeometry relative="1" as="geometry">
            <mxPoint x="275" y="62" as="sourcePoint" />
            <mxPoint x="360" y="62" as="targetPoint" />
            <Array as="points">
              <mxPoint x="492" y="52" />
              <mxPoint x="492" y="52" />
            </Array>
          </mxGeometry>
        </mxCell>
        <mxCell id="rMMuMBy2btpEowzyxKWz-4" style="edgeStyle=orthogonalEdgeStyle;rounded=0;html=1;labelBackgroundColor=none;startArrow=none;startFill=0;startSize=5;endArrow=classicThin;endFill=1;endSize=5;jettySize=auto;orthogonalLoop=1;strokeWidth=1;fontFamily=Verdana;fontSize=8;" parent="COQ0Ke3TuU1KpEBv3Df9-3" source="PEk56_E92UkK_R9a4uJ--1" target="EkzwxkjptAOeSFPmfMVf-0" edge="1">
          <mxGeometry relative="1" as="geometry">
            <mxPoint x="450" y="62" as="sourcePoint" />
            <mxPoint x="519" y="62" as="targetPoint" />
            <Array as="points">
              <mxPoint x="642" y="52" />
              <mxPoint x="642" y="52" />
            </Array>
          </mxGeometry>
        </mxCell>
        <mxCell id="OOLWq6neYUV_75jEqakw-1" style="edgeStyle=orthogonalEdgeStyle;rounded=0;html=1;labelBackgroundColor=none;startArrow=none;startFill=0;startSize=5;endArrow=classicThin;endFill=1;endSize=5;jettySize=auto;orthogonalLoop=1;strokeWidth=1;fontFamily=Verdana;fontSize=8;" parent="COQ0Ke3TuU1KpEBv3Df9-3" source="-Qeye_Q_pdpQpgmVEaxK-0" target="4Yz4ZIBajJbFgQMlm2hf-0" edge="1">
          <mxGeometry relative="1" as="geometry">
            <mxPoint x="890" y="165" as="sourcePoint" />
            <mxPoint x="840" y="86" as="targetPoint" />
            <Array as="points">
              <mxPoint x="840" y="10" />
              <mxPoint x="157" y="10" />
            </Array>
          </mxGeometry>
        </mxCell>
        <mxCell id="OOLWq6neYUV_75jEqakw-3" value="&lt;font style=&quot;font-size: 9px;&quot;&gt;Yes&lt;/font&gt;" style="edgeLabel;html=1;align=center;verticalAlign=middle;resizable=0;points=[];fontSize=12;" parent="OOLWq6neYUV_75jEqakw-1" vertex="1" connectable="0">
          <mxGeometry x="0.4695" y="2" relative="1" as="geometry">
            <mxPoint x="490" y="61" as="offset" />
          </mxGeometry>
        </mxCell>
        <mxCell id="MEvmZ49eNYxvBrrGOya8-0" value="" style="verticalLabelPosition=bottom;verticalAlign=top;html=1;shape=mxgraph.flowchart.summing_function;" parent="COQ0Ke3TuU1KpEBv3Df9-3" vertex="1">
          <mxGeometry x="459" y="195.25" width="30" height="30" as="geometry" />
        </mxCell>
        <mxCell id="rMMuMBy2btpEowzyxKWz-8" style="edgeStyle=orthogonalEdgeStyle;rounded=0;html=1;labelBackgroundColor=none;startArrow=none;startFill=0;startSize=5;endArrow=classicThin;endFill=1;endSize=5;jettySize=auto;orthogonalLoop=1;strokeWidth=1;fontFamily=Verdana;fontSize=8;" parent="COQ0Ke3TuU1KpEBv3Df9-3" source="IvhImgOrzTCuUS5XrYTy-0" target="MEvmZ49eNYxvBrrGOya8-0" edge="1">
          <mxGeometry relative="1" as="geometry">
            <mxPoint x="67" y="110" as="sourcePoint" />
            <mxPoint x="750" y="180" as="targetPoint" />
            <Array as="points">
              <mxPoint x="410" y="180" />
              <mxPoint x="410" y="210" />
            </Array>
          </mxGeometry>
        </mxCell>
        <mxCell id="rMMuMBy2btpEowzyxKWz-5" style="edgeStyle=orthogonalEdgeStyle;rounded=0;html=1;labelBackgroundColor=none;startArrow=none;startFill=0;startSize=5;endArrow=classicThin;endFill=1;endSize=5;jettySize=auto;orthogonalLoop=1;strokeWidth=1;fontFamily=Verdana;fontSize=8;" parent="COQ0Ke3TuU1KpEBv3Df9-3" source="PEk56_E92UkK_R9a4uJ--1" target="MEvmZ49eNYxvBrrGOya8-0" edge="1">
          <mxGeometry relative="1" as="geometry">
            <mxPoint x="520" y="57" as="sourcePoint" />
            <mxPoint x="601" y="57" as="targetPoint" />
            <Array as="points">
              <mxPoint x="540" y="210" />
            </Array>
          </mxGeometry>
        </mxCell>
        <mxCell id="MEvmZ49eNYxvBrrGOya8-1" style="edgeStyle=orthogonalEdgeStyle;rounded=0;html=1;labelBackgroundColor=none;startArrow=none;startFill=0;startSize=5;endArrow=classicThin;endFill=1;endSize=5;jettySize=auto;orthogonalLoop=1;strokeWidth=1;fontFamily=Verdana;fontSize=8;" parent="COQ0Ke3TuU1KpEBv3Df9-2" source="MEvmZ49eNYxvBrrGOya8-0" target="HBP69kEXZ3gig2j7da6N-1" edge="1">
          <mxGeometry relative="1" as="geometry">
            <mxPoint x="473.8549253731342" y="369" as="sourcePoint" />
            <mxPoint x="473.8549253731342" y="440.0000000000001" as="targetPoint" />
            <Array as="points" />
          </mxGeometry>
        </mxCell>
        <mxCell id="MEvmZ49eNYxvBrrGOya8-3" style="edgeStyle=orthogonalEdgeStyle;rounded=0;html=1;labelBackgroundColor=none;startArrow=none;startFill=0;startSize=5;endArrow=classicThin;endFill=1;endSize=5;jettySize=auto;orthogonalLoop=1;strokeWidth=1;fontFamily=Verdana;fontSize=8;" parent="COQ0Ke3TuU1KpEBv3Df9-2" source="HBP69kEXZ3gig2j7da6N-0" target="-Qeye_Q_pdpQpgmVEaxK-0" edge="1">
          <mxGeometry relative="1" as="geometry">
            <mxPoint x="519" y="429" as="sourcePoint" />
            <mxPoint x="600" y="429" as="targetPoint" />
            <Array as="points" />
          </mxGeometry>
        </mxCell>
        <mxCell id="Hwgq34wX531X5i8ONuBV-1" value="Customer" style="swimlane;html=1;startSize=20;horizontal=0;" parent="COQ0Ke3TuU1KpEBv3Df9-2" vertex="1">
          <mxGeometry y="270" width="1050" height="140" as="geometry" />
        </mxCell>
        <mxCell id="HBP69kEXZ3gig2j7da6N-1" value="&lt;div&gt;Received Product&lt;/div&gt;" style="rounded=1;whiteSpace=wrap;html=1;shadow=0;labelBackgroundColor=none;strokeWidth=1;fontFamily=Verdana;fontSize=8;align=center;" parent="Hwgq34wX531X5i8ONuBV-1" vertex="1">
          <mxGeometry x="439" y="49" width="70" height="37" as="geometry" />
        </mxCell>
        <mxCell id="HBP69kEXZ3gig2j7da6N-0" value="&lt;div&gt;Send Order Report to PASI&lt;/div&gt;" style="rounded=1;whiteSpace=wrap;html=1;shadow=0;labelBackgroundColor=none;strokeWidth=1;fontFamily=Verdana;fontSize=8;align=center;" parent="Hwgq34wX531X5i8ONuBV-1" vertex="1">
          <mxGeometry x="590" y="49" width="70" height="37" as="geometry" />
        </mxCell>
        <mxCell id="MEvmZ49eNYxvBrrGOya8-2" style="edgeStyle=orthogonalEdgeStyle;rounded=0;html=1;labelBackgroundColor=none;startArrow=none;startFill=0;startSize=5;endArrow=classicThin;endFill=1;endSize=5;jettySize=auto;orthogonalLoop=1;strokeWidth=1;fontFamily=Verdana;fontSize=8;" parent="Hwgq34wX531X5i8ONuBV-1" source="HBP69kEXZ3gig2j7da6N-1" target="HBP69kEXZ3gig2j7da6N-0" edge="1">
          <mxGeometry relative="1" as="geometry">
            <mxPoint x="484" y="-161" as="sourcePoint" />
            <mxPoint x="484" y="-90" as="targetPoint" />
            <Array as="points" />
          </mxGeometry>
        </mxCell>
        <mxCell id="YeU2dYdjbT4Ba5U-TQq3-0" value="PASI Sales" style="swimlane;html=1;startSize=20;horizontal=0;" parent="COQ0Ke3TuU1KpEBv3Df9-2" vertex="1">
          <mxGeometry y="410" width="1050" height="140" as="geometry" />
        </mxCell>
        <mxCell id="-Qeye_Q_pdpQpgmVEaxK-1" value="&lt;b&gt;7&lt;/b&gt;" style="ellipse;whiteSpace=wrap;html=1;rounded=0;shadow=0;labelBackgroundColor=none;strokeWidth=1;fontFamily=Verdana;fontSize=8;align=center;fillColor=#e3c800;fontColor=#000000;strokeColor=#B09500;" parent="YeU2dYdjbT4Ba5U-TQq3-0" vertex="1">
          <mxGeometry x="905" y="55" width="30" height="30" as="geometry" />
        </mxCell>
        <mxCell id="MEvmZ49eNYxvBrrGOya8-4" style="edgeStyle=orthogonalEdgeStyle;rounded=0;html=1;labelBackgroundColor=none;startArrow=none;startFill=0;startSize=5;endArrow=classicThin;endFill=1;endSize=5;jettySize=auto;orthogonalLoop=1;strokeWidth=1;fontFamily=Verdana;fontSize=8;" parent="COQ0Ke3TuU1KpEBv3Df9-2" source="-Qeye_Q_pdpQpgmVEaxK-0" target="-Qeye_Q_pdpQpgmVEaxK-1" edge="1">
          <mxGeometry relative="1" as="geometry">
            <mxPoint x="670" y="434" as="sourcePoint" />
            <mxPoint x="850" y="201" as="targetPoint" />
            <Array as="points">
              <mxPoint x="920" y="175" />
            </Array>
          </mxGeometry>
        </mxCell>
        <mxCell id="OOLWq6neYUV_75jEqakw-2" value="&lt;font style=&quot;font-size: 9px;&quot;&gt;No&lt;/font&gt;" style="edgeLabel;html=1;align=center;verticalAlign=middle;resizable=0;points=[];fontSize=12;" parent="MEvmZ49eNYxvBrrGOya8-4" vertex="1" connectable="0">
          <mxGeometry x="-0.476" y="-1" relative="1" as="geometry">
            <mxPoint y="-1" as="offset" />
          </mxGeometry>
        </mxCell>
      </root>
    </mxGraphModel>
  </diagram>
  <diagram name="4. Vendor Bill" id="MNS6am6GdvKAV8nySILa">
    <mxGraphModel dx="825" dy="451" grid="1" gridSize="10" guides="1" tooltips="1" connect="1" arrows="1" fold="1" page="1" pageScale="1" pageWidth="1100" pageHeight="850" background="none" math="0" shadow="0">
      <root>
        <mxCell id="jPinzQXYxkw2AWQa4lMp-0" />
        <mxCell id="jPinzQXYxkw2AWQa4lMp-1" parent="jPinzQXYxkw2AWQa4lMp-0" />
        <mxCell id="jPinzQXYxkw2AWQa4lMp-2" value="4&lt;span style=&quot;background-color: initial;&quot;&gt;. Vendor Bill&lt;/span&gt;" style="swimlane;html=1;childLayout=stackLayout;horizontal=1;startSize=20;horizontalStack=0;rounded=0;shadow=0;labelBackgroundColor=none;strokeWidth=1;fontFamily=Verdana;fontSize=8;align=center;" parent="jPinzQXYxkw2AWQa4lMp-1" vertex="1">
          <mxGeometry x="20" y="20" width="590" height="270" as="geometry" />
        </mxCell>
        <mxCell id="jPinzQXYxkw2AWQa4lMp-11" value="PASI&lt;div&gt;Procurement&lt;/div&gt;" style="swimlane;html=1;startSize=30;horizontal=0;" parent="jPinzQXYxkw2AWQa4lMp-2" vertex="1">
          <mxGeometry y="20" width="590" height="140" as="geometry" />
        </mxCell>
        <mxCell id="aO4gvNXTH_kMbVS2Z9P9-0" value="&lt;b&gt;2&lt;/b&gt;" style="ellipse;whiteSpace=wrap;html=1;rounded=0;shadow=0;labelBackgroundColor=none;strokeWidth=1;fontFamily=Verdana;fontSize=8;align=center;fillColor=#e3c800;fontColor=#000000;strokeColor=#B09500;" parent="jPinzQXYxkw2AWQa4lMp-11" vertex="1">
          <mxGeometry x="60" y="53" width="30" height="30" as="geometry" />
        </mxCell>
        <mxCell id="aO4gvNXTH_kMbVS2Z9P9-1" value="&lt;div&gt;Input Vendor Bill&lt;/div&gt;" style="rounded=1;whiteSpace=wrap;html=1;shadow=0;labelBackgroundColor=none;strokeWidth=1;fontFamily=Verdana;fontSize=8;align=center;fillColor=#e1d5e7;strokeColor=#9673a6;" parent="jPinzQXYxkw2AWQa4lMp-11" vertex="1">
          <mxGeometry x="148" y="48" width="80" height="40" as="geometry" />
        </mxCell>
        <mxCell id="KsNjMUtsXb_WeCqrDC0t-0" style="edgeStyle=orthogonalEdgeStyle;rounded=0;html=1;labelBackgroundColor=none;startArrow=none;startFill=0;startSize=5;endArrow=classicThin;endFill=1;endSize=5;jettySize=auto;orthogonalLoop=1;strokeWidth=1;fontFamily=Verdana;fontSize=8;" parent="jPinzQXYxkw2AWQa4lMp-11" source="aO4gvNXTH_kMbVS2Z9P9-0" target="aO4gvNXTH_kMbVS2Z9P9-1" edge="1">
          <mxGeometry relative="1" as="geometry">
            <mxPoint x="70" y="73" as="sourcePoint" />
            <mxPoint x="110" y="103" as="targetPoint" />
            <Array as="points">
              <mxPoint x="130" y="68" />
              <mxPoint x="130" y="68" />
            </Array>
          </mxGeometry>
        </mxCell>
        <mxCell id="aO4gvNXTH_kMbVS2Z9P9-4" value="&lt;div&gt;Mark Bill as Paid&lt;/div&gt;" style="rounded=1;whiteSpace=wrap;html=1;shadow=0;labelBackgroundColor=none;strokeWidth=1;fontFamily=Verdana;fontSize=8;align=center;fillColor=#e1d5e7;strokeColor=#9673a6;" parent="jPinzQXYxkw2AWQa4lMp-11" vertex="1">
          <mxGeometry x="380" y="48" width="80" height="40" as="geometry" />
        </mxCell>
        <mxCell id="nugXXEK_gS1UR8M9_r0q-0" value="" style="ellipse;whiteSpace=wrap;html=1;rounded=0;shadow=0;labelBackgroundColor=none;strokeWidth=1;fontFamily=Verdana;fontSize=8;align=center;fillColor=#000000;" parent="jPinzQXYxkw2AWQa4lMp-11" vertex="1">
          <mxGeometry x="536" y="53" width="30" height="30" as="geometry" />
        </mxCell>
        <mxCell id="KsNjMUtsXb_WeCqrDC0t-4" style="edgeStyle=orthogonalEdgeStyle;rounded=0;html=1;labelBackgroundColor=none;startArrow=none;startFill=0;startSize=5;endArrow=classicThin;endFill=1;endSize=5;jettySize=auto;orthogonalLoop=1;strokeWidth=1;fontFamily=Verdana;fontSize=8;" parent="jPinzQXYxkw2AWQa4lMp-11" source="aO4gvNXTH_kMbVS2Z9P9-4" target="nugXXEK_gS1UR8M9_r0q-0" edge="1">
          <mxGeometry relative="1" as="geometry">
            <mxPoint x="430" y="243" as="sourcePoint" />
            <mxPoint x="430" y="98" as="targetPoint" />
            <Array as="points" />
          </mxGeometry>
        </mxCell>
        <mxCell id="KsNjMUtsXb_WeCqrDC0t-5" value="&lt;div&gt;Attach all required Docs.&lt;/div&gt;" style="rounded=1;whiteSpace=wrap;html=1;shadow=0;labelBackgroundColor=none;strokeWidth=1;fontFamily=Verdana;fontSize=8;align=center;fillColor=#e1d5e7;strokeColor=#9673a6;" parent="jPinzQXYxkw2AWQa4lMp-11" vertex="1">
          <mxGeometry x="270" y="48" width="80" height="40" as="geometry" />
        </mxCell>
        <mxCell id="KsNjMUtsXb_WeCqrDC0t-6" style="edgeStyle=orthogonalEdgeStyle;rounded=0;html=1;labelBackgroundColor=none;startArrow=none;startFill=0;startSize=5;endArrow=classicThin;endFill=1;endSize=5;jettySize=auto;orthogonalLoop=1;strokeWidth=1;fontFamily=Verdana;fontSize=8;" parent="jPinzQXYxkw2AWQa4lMp-11" source="aO4gvNXTH_kMbVS2Z9P9-1" target="KsNjMUtsXb_WeCqrDC0t-5" edge="1">
          <mxGeometry relative="1" as="geometry">
            <mxPoint x="100" y="78" as="sourcePoint" />
            <mxPoint x="158" y="78" as="targetPoint" />
            <Array as="points" />
          </mxGeometry>
        </mxCell>
        <mxCell id="5ktk8gEhs-ZX1APFnPTC-0" value="Finance and&amp;nbsp;&lt;div&gt;Accounting&lt;/div&gt;" style="swimlane;html=1;startSize=30;horizontal=0;" parent="jPinzQXYxkw2AWQa4lMp-2" vertex="1">
          <mxGeometry y="160" width="590" height="110" as="geometry" />
        </mxCell>
        <mxCell id="aO4gvNXTH_kMbVS2Z9P9-2" value="&lt;div&gt;Approve AP&lt;/div&gt;" style="rounded=1;whiteSpace=wrap;html=1;shadow=0;labelBackgroundColor=none;strokeWidth=1;fontFamily=Verdana;fontSize=8;align=center;" parent="5ktk8gEhs-ZX1APFnPTC-0" vertex="1">
          <mxGeometry x="270" y="38" width="80" height="40" as="geometry" />
        </mxCell>
        <mxCell id="aO4gvNXTH_kMbVS2Z9P9-3" value="&lt;div&gt;Payment&lt;/div&gt;" style="rounded=1;whiteSpace=wrap;html=1;shadow=0;labelBackgroundColor=none;strokeWidth=1;fontFamily=Verdana;fontSize=8;align=center;" parent="5ktk8gEhs-ZX1APFnPTC-0" vertex="1">
          <mxGeometry x="380" y="38" width="80" height="40" as="geometry" />
        </mxCell>
        <mxCell id="KsNjMUtsXb_WeCqrDC0t-2" style="edgeStyle=orthogonalEdgeStyle;rounded=0;html=1;labelBackgroundColor=none;startArrow=none;startFill=0;startSize=5;endArrow=classicThin;endFill=1;endSize=5;jettySize=auto;orthogonalLoop=1;strokeWidth=1;fontFamily=Verdana;fontSize=8;" parent="5ktk8gEhs-ZX1APFnPTC-0" source="aO4gvNXTH_kMbVS2Z9P9-2" target="aO4gvNXTH_kMbVS2Z9P9-3" edge="1">
          <mxGeometry relative="1" as="geometry">
            <mxPoint x="198" y="-175" as="sourcePoint" />
            <mxPoint x="198" y="-30" as="targetPoint" />
            <Array as="points" />
          </mxGeometry>
        </mxCell>
        <mxCell id="KsNjMUtsXb_WeCqrDC0t-1" style="edgeStyle=orthogonalEdgeStyle;rounded=0;html=1;labelBackgroundColor=none;startArrow=none;startFill=0;startSize=5;endArrow=classicThin;endFill=1;endSize=5;jettySize=auto;orthogonalLoop=1;strokeWidth=1;fontFamily=Verdana;fontSize=8;" parent="jPinzQXYxkw2AWQa4lMp-2" source="KsNjMUtsXb_WeCqrDC0t-5" target="aO4gvNXTH_kMbVS2Z9P9-2" edge="1">
          <mxGeometry relative="1" as="geometry">
            <mxPoint x="100" y="135" as="sourcePoint" />
            <mxPoint x="158" y="135" as="targetPoint" />
            <Array as="points" />
          </mxGeometry>
        </mxCell>
        <mxCell id="KsNjMUtsXb_WeCqrDC0t-3" style="edgeStyle=orthogonalEdgeStyle;rounded=0;html=1;labelBackgroundColor=none;startArrow=none;startFill=0;startSize=5;endArrow=classicThin;endFill=1;endSize=5;jettySize=auto;orthogonalLoop=1;strokeWidth=1;fontFamily=Verdana;fontSize=8;" parent="jPinzQXYxkw2AWQa4lMp-2" source="aO4gvNXTH_kMbVS2Z9P9-3" target="aO4gvNXTH_kMbVS2Z9P9-4" edge="1">
          <mxGeometry relative="1" as="geometry">
            <mxPoint x="344" y="320" as="sourcePoint" />
            <mxPoint x="416" y="210" as="targetPoint" />
            <Array as="points" />
          </mxGeometry>
        </mxCell>
      </root>
    </mxGraphModel>
  </diagram>
  <diagram name="5. Customer Invoice" id="eKYPAtC9gnENFqKGf0Yr">
    <mxGraphModel dx="1114" dy="609" grid="1" gridSize="10" guides="1" tooltips="1" connect="1" arrows="1" fold="1" page="1" pageScale="1" pageWidth="1100" pageHeight="850" background="none" math="0" shadow="0">
      <root>
        <mxCell id="ylMtzRc362pFpXdP9fjl-0" />
        <mxCell id="ylMtzRc362pFpXdP9fjl-1" parent="ylMtzRc362pFpXdP9fjl-0" />
        <mxCell id="ylMtzRc362pFpXdP9fjl-2" value="5. Customer Invoice" style="swimlane;html=1;childLayout=stackLayout;horizontal=1;startSize=20;horizontalStack=0;rounded=0;shadow=0;labelBackgroundColor=none;strokeWidth=1;fontFamily=Verdana;fontSize=8;align=center;" parent="ylMtzRc362pFpXdP9fjl-1" vertex="1">
          <mxGeometry x="20" y="20" width="590" height="270" as="geometry" />
        </mxCell>
        <mxCell id="ylMtzRc362pFpXdP9fjl-3" value="PASI&lt;div&gt;&lt;span style=&quot;background-color: initial;&quot;&gt;Sales&lt;/span&gt;&lt;/div&gt;" style="swimlane;html=1;startSize=30;horizontal=0;" parent="ylMtzRc362pFpXdP9fjl-2" vertex="1">
          <mxGeometry y="20" width="590" height="140" as="geometry" />
        </mxCell>
        <mxCell id="ylMtzRc362pFpXdP9fjl-4" value="&lt;b&gt;2&lt;/b&gt;" style="ellipse;whiteSpace=wrap;html=1;rounded=0;shadow=0;labelBackgroundColor=none;strokeWidth=1;fontFamily=Verdana;fontSize=8;align=center;fillColor=#e3c800;fontColor=#000000;strokeColor=#B09500;" parent="ylMtzRc362pFpXdP9fjl-3" vertex="1">
          <mxGeometry x="60" y="53" width="30" height="30" as="geometry" />
        </mxCell>
        <mxCell id="ylMtzRc362pFpXdP9fjl-5" value="&lt;div&gt;Create Customer Invoice &amp;amp; Tax&lt;/div&gt;" style="rounded=1;whiteSpace=wrap;html=1;shadow=0;labelBackgroundColor=none;strokeWidth=1;fontFamily=Verdana;fontSize=8;align=center;fillColor=#e1d5e7;strokeColor=#9673a6;" parent="ylMtzRc362pFpXdP9fjl-3" vertex="1">
          <mxGeometry x="148" y="48" width="80" height="40" as="geometry" />
        </mxCell>
        <mxCell id="ylMtzRc362pFpXdP9fjl-6" style="edgeStyle=orthogonalEdgeStyle;rounded=0;html=1;labelBackgroundColor=none;startArrow=none;startFill=0;startSize=5;endArrow=classicThin;endFill=1;endSize=5;jettySize=auto;orthogonalLoop=1;strokeWidth=1;fontFamily=Verdana;fontSize=8;" parent="ylMtzRc362pFpXdP9fjl-3" source="ylMtzRc362pFpXdP9fjl-4" target="ylMtzRc362pFpXdP9fjl-5" edge="1">
          <mxGeometry relative="1" as="geometry">
            <mxPoint x="70" y="73" as="sourcePoint" />
            <mxPoint x="110" y="103" as="targetPoint" />
            <Array as="points">
              <mxPoint x="130" y="68" />
              <mxPoint x="130" y="68" />
            </Array>
          </mxGeometry>
        </mxCell>
        <mxCell id="ylMtzRc362pFpXdP9fjl-7" value="&lt;div&gt;Mark Invoice as Paid&lt;/div&gt;" style="rounded=1;whiteSpace=wrap;html=1;shadow=0;labelBackgroundColor=none;strokeWidth=1;fontFamily=Verdana;fontSize=8;align=center;fillColor=#e1d5e7;strokeColor=#9673a6;" parent="ylMtzRc362pFpXdP9fjl-3" vertex="1">
          <mxGeometry x="380" y="48" width="80" height="40" as="geometry" />
        </mxCell>
        <mxCell id="ylMtzRc362pFpXdP9fjl-8" value="" style="ellipse;whiteSpace=wrap;html=1;rounded=0;shadow=0;labelBackgroundColor=none;strokeWidth=1;fontFamily=Verdana;fontSize=8;align=center;fillColor=#000000;" parent="ylMtzRc362pFpXdP9fjl-3" vertex="1">
          <mxGeometry x="536" y="53" width="30" height="30" as="geometry" />
        </mxCell>
        <mxCell id="ylMtzRc362pFpXdP9fjl-9" style="edgeStyle=orthogonalEdgeStyle;rounded=0;html=1;labelBackgroundColor=none;startArrow=none;startFill=0;startSize=5;endArrow=classicThin;endFill=1;endSize=5;jettySize=auto;orthogonalLoop=1;strokeWidth=1;fontFamily=Verdana;fontSize=8;" parent="ylMtzRc362pFpXdP9fjl-3" source="ylMtzRc362pFpXdP9fjl-7" target="ylMtzRc362pFpXdP9fjl-8" edge="1">
          <mxGeometry relative="1" as="geometry">
            <mxPoint x="430" y="243" as="sourcePoint" />
            <mxPoint x="430" y="98" as="targetPoint" />
            <Array as="points" />
          </mxGeometry>
        </mxCell>
        <mxCell id="ylMtzRc362pFpXdP9fjl-10" value="&lt;div&gt;Send to Customer or Affiliate&lt;/div&gt;" style="rounded=1;whiteSpace=wrap;html=1;shadow=0;labelBackgroundColor=none;strokeWidth=1;fontFamily=Verdana;fontSize=8;align=center;fillColor=#e1d5e7;strokeColor=#9673a6;" parent="ylMtzRc362pFpXdP9fjl-3" vertex="1">
          <mxGeometry x="270" y="48" width="80" height="40" as="geometry" />
        </mxCell>
        <mxCell id="ylMtzRc362pFpXdP9fjl-11" style="edgeStyle=orthogonalEdgeStyle;rounded=0;html=1;labelBackgroundColor=none;startArrow=none;startFill=0;startSize=5;endArrow=classicThin;endFill=1;endSize=5;jettySize=auto;orthogonalLoop=1;strokeWidth=1;fontFamily=Verdana;fontSize=8;" parent="ylMtzRc362pFpXdP9fjl-3" source="ylMtzRc362pFpXdP9fjl-5" target="ylMtzRc362pFpXdP9fjl-10" edge="1">
          <mxGeometry relative="1" as="geometry">
            <mxPoint x="100" y="78" as="sourcePoint" />
            <mxPoint x="158" y="78" as="targetPoint" />
            <Array as="points" />
          </mxGeometry>
        </mxCell>
        <mxCell id="ylMtzRc362pFpXdP9fjl-12" value="Finance and&amp;nbsp;&lt;div&gt;Accounting&lt;/div&gt;" style="swimlane;html=1;startSize=30;horizontal=0;" parent="ylMtzRc362pFpXdP9fjl-2" vertex="1">
          <mxGeometry y="160" width="590" height="110" as="geometry" />
        </mxCell>
        <mxCell id="ylMtzRc362pFpXdP9fjl-13" value="&lt;div&gt;Approve AR&lt;/div&gt;" style="rounded=1;whiteSpace=wrap;html=1;shadow=0;labelBackgroundColor=none;strokeWidth=1;fontFamily=Verdana;fontSize=8;align=center;" parent="ylMtzRc362pFpXdP9fjl-12" vertex="1">
          <mxGeometry x="270" y="38" width="80" height="40" as="geometry" />
        </mxCell>
        <mxCell id="ylMtzRc362pFpXdP9fjl-14" value="&lt;div&gt;Reconcile Payment&lt;/div&gt;" style="rounded=1;whiteSpace=wrap;html=1;shadow=0;labelBackgroundColor=none;strokeWidth=1;fontFamily=Verdana;fontSize=8;align=center;" parent="ylMtzRc362pFpXdP9fjl-12" vertex="1">
          <mxGeometry x="380" y="38" width="80" height="40" as="geometry" />
        </mxCell>
        <mxCell id="ylMtzRc362pFpXdP9fjl-15" style="edgeStyle=orthogonalEdgeStyle;rounded=0;html=1;labelBackgroundColor=none;startArrow=none;startFill=0;startSize=5;endArrow=classicThin;endFill=1;endSize=5;jettySize=auto;orthogonalLoop=1;strokeWidth=1;fontFamily=Verdana;fontSize=8;" parent="ylMtzRc362pFpXdP9fjl-12" source="ylMtzRc362pFpXdP9fjl-13" target="ylMtzRc362pFpXdP9fjl-14" edge="1">
          <mxGeometry relative="1" as="geometry">
            <mxPoint x="198" y="-175" as="sourcePoint" />
            <mxPoint x="198" y="-30" as="targetPoint" />
            <Array as="points" />
          </mxGeometry>
        </mxCell>
        <mxCell id="ylMtzRc362pFpXdP9fjl-16" style="edgeStyle=orthogonalEdgeStyle;rounded=0;html=1;labelBackgroundColor=none;startArrow=none;startFill=0;startSize=5;endArrow=classicThin;endFill=1;endSize=5;jettySize=auto;orthogonalLoop=1;strokeWidth=1;fontFamily=Verdana;fontSize=8;" parent="ylMtzRc362pFpXdP9fjl-2" source="ylMtzRc362pFpXdP9fjl-10" target="ylMtzRc362pFpXdP9fjl-13" edge="1">
          <mxGeometry relative="1" as="geometry">
            <mxPoint x="100" y="135" as="sourcePoint" />
            <mxPoint x="158" y="135" as="targetPoint" />
            <Array as="points" />
          </mxGeometry>
        </mxCell>
        <mxCell id="ylMtzRc362pFpXdP9fjl-17" style="edgeStyle=orthogonalEdgeStyle;rounded=0;html=1;labelBackgroundColor=none;startArrow=none;startFill=0;startSize=5;endArrow=classicThin;endFill=1;endSize=5;jettySize=auto;orthogonalLoop=1;strokeWidth=1;fontFamily=Verdana;fontSize=8;" parent="ylMtzRc362pFpXdP9fjl-2" source="ylMtzRc362pFpXdP9fjl-14" target="ylMtzRc362pFpXdP9fjl-7" edge="1">
          <mxGeometry relative="1" as="geometry">
            <mxPoint x="344" y="320" as="sourcePoint" />
            <mxPoint x="416" y="210" as="targetPoint" />
            <Array as="points" />
          </mxGeometry>
        </mxCell>
      </root>
    </mxGraphModel>
  </diagram>
</mxfile>
